<?xml version="1.0" encoding="utf-8"?>
<!-- Generator: Adobe Illustrator 27.5.0, SVG Export Plug-In . SVG Version: 6.00 Build 0)  -->
<svg version="1.1" id="Calque_1" xmlns="http://www.w3.org/2000/svg" xmlns:xlink="http://www.w3.org/1999/xlink" x="0px" y="0px"
	 viewBox="0 0 1000 1000" style="enable-background:new 0 0 1000 1000;" xml:space="preserve">
<style type="text/css">
	.st0{display:none;fill:#010202;}
	.st1{display:none;fill:#282828;}
	.st2{fill:#FFFFFF;}
	.st3{clip-path:url(#SVGID_00000006692173755364661850000011692395178840899499_);fill:#FFFFFF;}
	.st4{clip-path:url(#SVGID_00000021103621498286530460000008874889517371857068_);fill:#FFFFFF;}
	.st5{clip-path:url(#SVGID_00000077317007744210509460000002209971707130303393_);fill:#FFFFFF;}
	.st6{clip-path:url(#SVGID_00000086670025822294130520000009954179401054177939_);fill:#FFFFFF;}
	.st7{clip-path:url(#SVGID_00000183216650143782665140000014492142468254675369_);fill:#FFFFFF;}
	.st8{display:none;}
	.st9{display:inline;fill:url(#SVGID_00000095338269053778462860000008202939126633108671_);}
	.st10{display:inline;fill:url(#SVGID_00000173126272073309439150000003222100691086761396_);}
	.st11{display:inline;fill:url(#SVGID_00000103228847759391834700000016450667068837277833_);}
	.st12{display:inline;fill:url(#SVGID_00000179609982320717045670000003896081870926987687_);}
	.st13{display:inline;fill:url(#SVGID_00000061451691591534990740000011113026036949924499_);}
</style>
<rect class="st0" width="1000" height="1000"/>
<rect class="st1" width="1000" height="1000"/>
<g>
	<path class="st2" d="M498.7,849.1l-3.4-7.8c-9.6-22.1-27.1-33.8-45.7-46.2c-28.5-19.1-60.8-40.7-68.3-104.9l-0.2-1.9l1.5-1.3
		c21.8-19.1,30.7-53.1,34.4-78.2c4-27.6,2.8-50.7,2.8-51l7.4-0.4c0.1,1,1.3,24.2-2.9,52.4c-5.5,37.4-17.4,64.7-35.4,81.4
		c7.5,59.4,36.6,78.9,64.8,97.7c17.5,11.7,34.2,22.8,45,42.5c10.8-19.7,27.4-30.8,45-42.5c28.2-18.9,57.4-38.4,64.8-97.7
		c-18-16.6-30-44-35.6-81.4c-4.3-28.3-3.1-51.5-3.1-52.4l7.4,0.4c0,0.2-1.2,23.5,3,51.1C584,634,593.1,668,614.8,687l1.5,1.3
		l-0.2,1.9c-7.5,64.2-39.8,85.8-68.3,104.9c-18.5,12.4-36.1,24.1-45.7,46.2L498.7,849.1z"/>
	<path class="st2" d="M498.7,684.1c-22.9,0-48.1-14.3-52.8-46.2l-0.2-1.6l1-1.2c33.7-43,7.4-94.1-11.7-131.4
		c-8-15.6-14.3-27.9-14.9-36.9v-0.7l0.2-0.7c1-2.9,1.8-5.6,2.5-8.1c4.1-15.4,13.1-23.9,19.6-26.5l0,0c20.6-8.3,92.3-8.3,112.9,0
		c6.5,2.6,15.5,11.1,19.6,26.5c0.7,2.5,1.5,5.2,2.5,8.1l0.2,0.7v0.7c-0.6,9-6.9,21.3-14.9,36.9c-19.2,37.3-45.4,88.4-11.7,131.4
		l1,1.2l-0.2,1.6C546.8,669.8,521.6,684.1,498.7,684.1z M453.4,638.3c4.7,26.5,26,38.4,45.3,38.4c19.3,0,40.6-11.9,45.3-38.4
		c-3.6-4.8-6.6-9.7-9-14.8c-1.1,10.7-4.6,19.5-10.6,26.3c-10.6,12-24.9,12.9-25.5,12.9h-0.2h-0.2c-0.6,0-14.9-0.9-25.5-12.9
		c-6-6.8-9.5-15.6-10.6-26.3C460.1,628.6,457,633.6,453.4,638.3z M469.5,618.2c0.3,11.2,3.3,20.2,9,26.7c7.9,9,18.6,10.4,20.2,10.5
		c1.6-0.2,12.4-1.6,20.2-10.5c5.7-6.5,8.7-15.4,9-26.7c-4.2,2.8-10.1,5.6-16.4,4.5c-5-0.8-9.3-3.8-12.8-9c-3.5,5.1-7.8,8.1-12.8,9
		C479.7,623.8,473.8,621,469.5,618.2z M468.1,607.4l0.6,0.7c2.3,2.4,9.6,8.5,16,7.4c4.1-0.7,7.7-4.3,10.6-10.8l3.4-7.5l3.4,7.5
		c2.9,6.5,6.5,10.1,10.6,10.8c6.4,1.1,13.7-5,16-7.4l0.6-0.7c-2.9-12.6-2.8-26.3,0.3-41.3c4.9-24.1,16.8-47.2,26.4-65.8
		c7.1-13.8,13.3-25.8,14.1-33.3c-0.9-2.8-1.7-5.4-2.4-7.8c-3.6-13.6-11.3-20-15.3-21.6c-19.1-7.7-88.3-7.7-107.4,0l0,0
		c-4,1.6-11.6,7.9-15.3,21.6c-0.7,2.5-1.4,5-2.4,7.8c0.8,7.5,7,19.5,14.1,33.3c9.6,18.6,21.4,41.7,26.4,65.8
		C470.9,581,471,594.7,468.1,607.4z"/>
	<g>
		<g>
			<path id="SVGID_00000109750634603793660640000010942349649169619097_" class="st2" d="M447.2,646.3l-1.3-8.5
				c-6.5-43.5-17.9-64.3-29.9-86.4c-3.7-6.8-7.5-13.8-11.4-21.7c-1.4-2.8-2.1-6.1-2.3-9.6c-0.4-10.6,4.8-23,10.4-36.1
				c2.6-6.1,5.2-12.4,7.4-18.7l6-17.3l1.2,18.2c0.5,7.5,6.8,19.8,14.1,34c9.6,18.6,21.4,41.7,26.4,65.8c5.9,28.7,0.9,52.8-15.4,73.6
				L447.2,646.3z M423,478.6c-1.1,2.8-2.3,5.5-3.4,8.3c-5.2,12.4-10.1,24-9.8,33c0.1,2.5,0.6,4.7,1.5,6.7
				c3.7,7.7,7.5,14.7,11.2,21.4c11.5,21.1,22.4,41.1,29.3,79.9c25.7-41.4,1.3-88.9-16.8-124.2C430,494.1,425.7,485.7,423,478.6z"/>
		</g>
		<g>
			<defs>
				<path id="SVGID_1_" d="M447.2,646.3l-1.3-8.5c-6.5-43.5-17.9-64.3-29.9-86.4c-3.7-6.8-7.5-13.8-11.4-21.7
					c-1.4-2.8-2.1-6.1-2.3-9.6c-0.4-10.6,4.8-23,10.4-36.1c2.6-6.1,5.2-12.4,7.4-18.7l6-17.3l1.2,18.2c0.5,7.5,6.8,19.8,14.1,34
					c9.6,18.6,21.4,41.7,26.4,65.8c5.9,28.7,0.9,52.8-15.4,73.6L447.2,646.3z M423,478.6c-1.1,2.8-2.3,5.5-3.4,8.3
					c-5.2,12.4-10.1,24-9.8,33c0.1,2.5,0.6,4.7,1.5,6.7c3.7,7.7,7.5,14.7,11.2,21.4c11.5,21.1,22.4,41.1,29.3,79.9
					c25.7-41.4,1.3-88.9-16.8-124.2C430,494.1,425.7,485.7,423,478.6z"/>
			</defs>
			<use xlink:href="#SVGID_1_"  style="overflow:visible;fill:#FFFFFF;"/>
			<clipPath id="SVGID_00000101793908706033066710000016843366226159707278_">
				<use xlink:href="#SVGID_1_"  style="overflow:visible;"/>
			</clipPath>
			<path style="clip-path:url(#SVGID_00000101793908706033066710000016843366226159707278_);fill:#FFFFFF;" d="M502.4,641H401.8
				V462.8h100.6V641z M409.2,633.7H495V470.2h-85.8V633.7z"/>
		</g>
	</g>
	<g>
		<g>
			<path id="SVGID_00000142164499305853429830000011744545937844416642_" class="st2" d="M409.9,523.9l-4-0.2
				c-35.1-1.7-63.6-20.1-82.6-53.4c-14.2-24.9-18-48.9-18.1-49.9l-1.8-11.5l8.1,8.4c20.6,21.6,45.1,23.6,66.7,25.3
				c20.4,1.7,39.7,3.2,48.8,22.3l0.7,1.4l-0.5,1.4c-2.3,6.6-5,13-7.6,19.2c-5.2,12.4-10.1,24-9.8,33L409.9,523.9z M314.9,430.4
				c2.5,9.1,7,22.8,14.8,36.4c7.9,13.8,17.5,24.9,28.5,33c12.8,9.4,27.6,14.9,44.2,16.3c0.8-9.6,5.4-20.5,10.3-32
				c2.4-5.6,4.8-11.4,6.9-17.3c-7.6-14-22.9-15.3-42.1-16.8C358.6,448.4,335.5,446.5,314.9,430.4z"/>
		</g>
		<g>
			<defs>
				<path id="SVGID_00000088109738240507444150000005778506959119236767_" d="M409.9,523.9l-4-0.2c-35.1-1.7-63.6-20.1-82.6-53.4
					c-14.2-24.9-18-48.9-18.1-49.9l-1.8-11.5l8.1,8.4c20.6,21.6,45.1,23.6,66.7,25.3c20.4,1.7,39.7,3.2,48.8,22.3l0.7,1.4l-0.5,1.4
					c-2.3,6.6-5,13-7.6,19.2c-5.2,12.4-10.1,24-9.8,33L409.9,523.9z M314.9,430.4c2.5,9.1,7,22.8,14.8,36.4
					c7.9,13.8,17.5,24.9,28.5,33c12.8,9.4,27.6,14.9,44.2,16.3c0.8-9.6,5.4-20.5,10.3-32c2.4-5.6,4.8-11.4,6.9-17.3
					c-7.6-14-22.9-15.3-42.1-16.8C358.6,448.4,335.5,446.5,314.9,430.4z"/>
			</defs>
			<use xlink:href="#SVGID_00000088109738240507444150000005778506959119236767_"  style="overflow:visible;fill:#FFFFFF;"/>
			<clipPath id="SVGID_00000145059332387079802800000007155757454936025787_">
				<use xlink:href="#SVGID_00000088109738240507444150000005778506959119236767_"  style="overflow:visible;"/>
			</clipPath>
			<path style="clip-path:url(#SVGID_00000145059332387079802800000007155757454936025787_);fill:#FFFFFF;" d="M427.3,523.7H305.1
				V416.1h122.2V523.7z M312.5,516.3H420v-92.8H312.5V516.3z"/>
		</g>
	</g>
	<g>
		<g>
			<path id="SVGID_00000129164262161327171060000001941028202190027398_" class="st2" d="M498.7,662.8h-0.2
				c-0.6,0-14.9-0.9-25.5-12.9c-8.3-9.4-11.9-22.7-10.7-39.6l0.6-8.5l5.8,6.2c2.3,2.4,9.6,8.5,16,7.4c4.1-0.7,7.7-4.3,10.6-10.8
				l3.4-7.5l3.4,7.5c2.9,6.5,6.5,10.1,10.6,10.8c6.4,1.1,13.7-5,16-7.4l5.8-6.2l0.6,8.4c1.2,16.9-2.4,30.2-10.7,39.6
				c-10.6,12-24.9,12.9-25.5,12.9L498.7,662.8z M469.5,618.2c0.3,11.2,3.3,20.2,9,26.7c7.9,9,18.6,10.4,20.2,10.5
				c1.6-0.2,12.4-1.5,20.2-10.5c5.7-6.5,8.7-15.4,9-26.7c-4.2,2.8-10.1,5.6-16.4,4.5c-5-0.8-9.3-3.8-12.8-9c-3.5,5.1-7.8,8.1-12.8,9
				C479.7,623.8,473.8,621,469.5,618.2z"/>
		</g>
		<g>
			<defs>
				<path id="SVGID_00000155115167091951874780000016595691778903410835_" d="M498.7,662.8h-0.2c-0.6,0-14.9-0.9-25.5-12.9
					c-8.3-9.4-11.9-22.7-10.7-39.6l0.6-8.5l5.8,6.2c2.3,2.4,9.6,8.5,16,7.4c4.1-0.7,7.7-4.3,10.6-10.8l3.4-7.5l3.4,7.5
					c2.9,6.5,6.5,10.1,10.6,10.8c6.4,1.1,13.7-5,16-7.4l5.8-6.2l0.6,8.4c1.2,16.9-2.4,30.2-10.7,39.6c-10.6,12-24.9,12.9-25.5,12.9
					L498.7,662.8z M469.5,618.2c0.3,11.2,3.3,20.2,9,26.7c7.9,9,18.6,10.4,20.2,10.5c1.6-0.2,12.4-1.5,20.2-10.5
					c5.7-6.5,8.7-15.4,9-26.7c-4.2,2.8-10.1,5.6-16.4,4.5c-5-0.8-9.3-3.8-12.8-9c-3.5,5.1-7.8,8.1-12.8,9
					C479.7,623.8,473.8,621,469.5,618.2z"/>
			</defs>
			<use xlink:href="#SVGID_00000155115167091951874780000016595691778903410835_"  style="overflow:visible;fill:#FFFFFF;"/>
			<clipPath id="SVGID_00000170273621053533948070000016006159807532076711_">
				<use xlink:href="#SVGID_00000155115167091951874780000016595691778903410835_"  style="overflow:visible;"/>
			</clipPath>
			<path style="clip-path:url(#SVGID_00000170273621053533948070000016006159807532076711_);fill:#FFFFFF;" d="M538.4,662.8h-79.3
				v-60.3h79.3V662.8z M466.5,655.4H531v-45.6h-64.6v45.6H466.5z"/>
		</g>
	</g>
	<path class="st2" d="M412.1,504.8l-1.8-13.6c-2.2-16.7-18.2-21.6-38.3-27.8c-21.6-6.6-48.6-14.9-66.2-41.6l5.7-4.6
		c20.6,21.6,45.1,23.6,66.7,25.3c20.4,1.7,39.7,3.2,48.8,22.3l0.7,1.4l-0.5,1.4c-2.3,6.5-4.9,12.9-7.6,19.1
		c-0.8,1.8-1.5,3.6-2.2,5.4L412.1,504.8z M342,444.3c10.5,5.4,21.7,8.9,32.1,12.1c17.1,5.3,33.4,10.3,40.3,23.7
		c1.8-4.4,3.6-8.8,5.2-13.3c-7.6-14-22.9-15.3-42.1-16.8C366.6,449,354.4,448,342,444.3z"/>
	<g>
		<g>
			<path id="SVGID_00000109015772199517530180000003407025835949761709_" class="st2" d="M550.3,646.3l-5.3-6.7
				c-16.3-20.8-21.3-44.8-15.4-73.5c4.9-24.1,16.8-47.2,26.4-65.8c7.3-14.2,13.6-26.5,14.1-34l1.2-18.2l6,17.2
				c2.2,6.3,4.8,12.6,7.4,18.7c5.5,13.1,10.8,25.5,10.4,36.1c-0.1,3.6-0.9,6.8-2.3,9.6c-3.8,7.9-7.7,14.9-11.4,21.7
				c-12,22.1-23.4,42.9-29.9,86.4L550.3,646.3z M574.5,478.6c-2.7,7.1-7,15.4-11.9,25c-18.1,35.2-42.5,82.7-16.8,124.2
				c6.9-38.7,17.8-58.8,29.3-79.9c3.7-6.7,7.5-13.7,11.2-21.4c0.9-1.9,1.4-4.1,1.5-6.7c0.3-8.9-4.6-20.6-9.8-33
				C576.8,484.2,575.6,481.4,574.5,478.6z"/>
		</g>
		<g>
			<defs>
				<path id="SVGID_00000180368548399952731160000009949686606803832227_" d="M550.3,646.3l-5.3-6.7c-16.3-20.8-21.3-44.8-15.4-73.5
					c4.9-24.1,16.8-47.2,26.4-65.8c7.3-14.2,13.6-26.5,14.1-34l1.2-18.2l6,17.2c2.2,6.3,4.8,12.6,7.4,18.7
					c5.5,13.1,10.8,25.5,10.4,36.1c-0.1,3.6-0.9,6.8-2.3,9.6c-3.8,7.9-7.7,14.9-11.4,21.7c-12,22.1-23.4,42.9-29.9,86.4L550.3,646.3
					z M574.5,478.6c-2.7,7.1-7,15.4-11.9,25c-18.1,35.2-42.5,82.7-16.8,124.2c6.9-38.7,17.8-58.8,29.3-79.9
					c3.7-6.7,7.5-13.7,11.2-21.4c0.9-1.9,1.4-4.1,1.5-6.7c0.3-8.9-4.6-20.6-9.8-33C576.8,484.2,575.6,481.4,574.5,478.6z"/>
			</defs>
			<use xlink:href="#SVGID_00000180368548399952731160000009949686606803832227_"  style="overflow:visible;fill:#FFFFFF;"/>
			<clipPath id="SVGID_00000168810822621165567940000010401260373921649030_">
				<use xlink:href="#SVGID_00000180368548399952731160000009949686606803832227_"  style="overflow:visible;"/>
			</clipPath>
			<path style="clip-path:url(#SVGID_00000168810822621165567940000010401260373921649030_);fill:#FFFFFF;" d="M595.6,641H495.1
				V462.8h100.6V641H595.6z M502.4,633.7h85.8V470.2h-85.8L502.4,633.7L502.4,633.7z"/>
		</g>
	</g>
	<g>
		<g>
			<path id="SVGID_00000139276159125094331920000004368529522129300149_" class="st2" d="M587.6,523.9l0.1-4
				c0.3-8.9-4.6-20.6-9.8-33c-2.6-6.2-5.3-12.6-7.6-19.2l-0.5-1.4l0.7-1.4c9.1-19.1,28.4-20.7,48.8-22.3
				c21.6-1.8,46.1-3.7,66.7-25.3l8.1-8.4l-1.8,11.5c-0.2,1-3.9,25-18.1,49.9c-19,33.3-47.5,51.8-82.6,53.4L587.6,523.9z
				 M577.8,466.8c2.1,5.8,4.5,11.6,6.9,17.3c4.8,11.5,9.5,22.4,10.3,32c16.6-1.4,31.5-6.9,44.3-16.3c11.1-8.2,20.7-19.3,28.5-33.1
				c7.8-13.6,12.3-27.2,14.7-36.2c-20.6,16.2-43.6,18-62.7,19.6C600.7,451.5,585.4,452.7,577.8,466.8z"/>
		</g>
		<g>
			<defs>
				<path id="SVGID_00000016795126181271076780000004175886097315897531_" d="M587.6,523.9l0.1-4c0.3-8.9-4.6-20.6-9.8-33
					c-2.6-6.2-5.3-12.6-7.6-19.2l-0.5-1.4l0.7-1.4c9.1-19.1,28.4-20.7,48.8-22.3c21.6-1.8,46.1-3.7,66.7-25.3l8.1-8.4l-1.8,11.5
					c-0.2,1-3.9,25-18.1,49.9c-19,33.3-47.5,51.8-82.6,53.4L587.6,523.9z M577.8,466.8c2.1,5.8,4.5,11.6,6.9,17.3
					c4.8,11.5,9.5,22.4,10.3,32c16.6-1.4,31.5-6.9,44.3-16.3c11.1-8.2,20.7-19.3,28.5-33.1c7.8-13.6,12.3-27.2,14.7-36.2
					c-20.6,16.2-43.6,18-62.7,19.6C600.7,451.5,585.4,452.7,577.8,466.8z"/>
			</defs>
			<use xlink:href="#SVGID_00000016795126181271076780000004175886097315897531_"  style="overflow:visible;fill:#FFFFFF;"/>
			<clipPath id="SVGID_00000039122737340030421200000018372137393712427705_">
				<use xlink:href="#SVGID_00000016795126181271076780000004175886097315897531_"  style="overflow:visible;"/>
			</clipPath>
			<path style="clip-path:url(#SVGID_00000039122737340030421200000018372137393712427705_);fill:#FFFFFF;" d="M692.4,523.7H570.1
				V416.1h122.2v107.6H692.4z M577.5,516.3H685v-92.8H577.5V516.3z"/>
		</g>
	</g>
	<path class="st2" d="M585.4,504.8l-5.2-12.6c-0.7-1.7-1.5-3.5-2.2-5.2c-2.6-6.2-5.3-12.7-7.6-19.2l-0.5-1.4l0.7-1.4
		c9.1-19.1,28.4-20.7,48.8-22.3c21.6-1.8,46.1-3.7,66.7-25.3l5.7,4.6c-17.6,26.7-44.6,34.9-66.2,41.6c-20.2,6.2-36.1,11.1-38.3,27.8
		L585.4,504.8z M577.8,466.8c1.6,4.5,3.4,8.9,5.2,13.3c6.9-13.4,23.3-18.4,40.3-23.7c10.5-3.2,21.6-6.6,32.1-12.1
		c-12.4,3.8-24.7,4.8-35.6,5.7C600.7,451.5,585.4,452.7,577.8,466.8z"/>
	<path class="st2" d="M498.7,849.1l-3.4-7.8c-9.6-22.1-27.1-33.8-45.7-46.2c-28.5-19.1-60.8-40.7-68.3-104.9l-0.2-1.9l1.5-1.3
		c1-0.8,1.9-1.7,2.9-2.6l4.5-4.5l1.6,6.2c0,0.2,4.8,18.3,16.2,34.9c14.8,21.6,33.2,30.5,54.9,26.7l0,0c15.6-2.8,27.2-2.7,36.1,0.2
		c8.9-2.9,20.4-3,36.1-0.2c21.6,3.8,40.1-5.1,54.9-26.7c11.4-16.6,16.1-34.7,16.2-34.9l1.6-6.2l4.5,4.4c0.9,0.9,1.9,1.8,2.8,2.6
		l1.5,1.3l-0.2,1.9c-7.5,64.2-39.8,85.8-68.3,104.9c-18.5,12.4-36.1,24.1-45.7,46.2L498.7,849.1z M391.7,707.2
		c10.3,47.1,36.6,64.7,62.1,81.8c17.5,11.7,34.2,22.8,45,42.5c10.8-19.7,27.4-30.8,45-42.5c25.5-17.1,51.8-34.6,62.1-81.8
		c-2.5,5.5-5.8,11.7-10,17.7c-16.3,23.9-37.9,34.3-62.3,30c-14.8-2.6-25.8-2.5-33.5,0.3l-1.3,0.5l-1.3-0.5c-7.7-2.9-18.6-3-33.5-0.3
		l0,0c-24.5,4.3-46-6-62.3-30C397.5,718.9,394.2,712.8,391.7,707.2z"/>
	<g>
		<g>
			<g>
				<g>
					<path class="st2" d="M551.8,462.6c-1.8,0-3.7-0.2-5.6-0.5c-7.2-1.3-12.4-4.6-15.6-9.9c-6-9.9-2.1-22.8-1.9-23.3l0.5-1.5
						l1.4-0.7c3.6-1.9,7.3-4.6,8.1-5.9c-0.2-4.3,1.5-8.9,4.9-13.2c3.1-4,13.6-5.7,18.5-6.3c0.7-0.3,2.8-1.2,4.4-2.9
						c1.6-1.7,11.6-8.3,33.9-23.1c12-8,24.5-16.2,28.5-19.1c6.5-4.7,19.5-11.5,29-16.5c4-2.1,7.5-3.9,8.6-4.6l0.7-0.5
						c4.7-3,18.9-12,30.4-23.9c11.5-11.7,13-30.9,13-31.1v-0.4l0.1-0.4c1-3.7,1.5-8.3,1.9-13.3c0.5-5.6,1.1-12,2.7-18.3
						c2.9-11.4,4.6-22,3.5-37c-1.3-17.5-9.8-36.6-11.5-40.2c-1.1-2.4-2.3-5-3.5-7.7c-3.3-7.2-6.6-14.7-8.7-18.4
						c-1.8-3.2-5-9.6-7.8-15.2c-1.9-3.7-3.6-7.3-4.5-8.9c-0.4-0.7-0.9-1.7-1.6-3c-3-5.6-8.5-16.1-11.9-20.5
						c-2.6-3.4-6.4-10.4-10.3-17.8c-2.9-5.4-5.8-10.9-8.1-14.5c-1.7-2.6-5.5-8.8-1.4-11.8c2.3-1.7,5.5-0.9,8.1,2.1
						c2.1,2.5,5.5,7,8.7,11.4c2.1,2.8,4.1,5.5,5.4,7.2c1,1.3,1.7,2.4,2.4,3.5c2,3,4.1,6.1,10.9,12.5c9.3,8.7,13.1,13.5,17.2,18.6
						l0.7,0.9c2.8,3.5,5.2,8.6,7.4,13.1c1.4,3,2.8,5.8,4,7.6c1.6,2.5,3.9,7,6.3,11.8c2.2,4.3,5.4,10.7,6.4,11.9
						c1.4,1.5,2.6,2.2,3.7,2.2c2.6-0.2,5.5-4.3,6.7-6.1c0.2-0.3,0.4-0.6,0.6-0.8c1.1-1.5,2.2-8.7,2.8-12.6c0.3-2,0.6-3.9,0.9-5.6
						c1.1-5.9-0.4-12.2-1.4-14.7c-1.5-3.9-4.6-20.4-4.8-25c-0.1-2.1-0.3-6.4-0.6-10.5c-0.4-6.1-0.5-9-0.5-10c0-0.3-0.2-1-0.3-1.6
						c-1-5.4-1.7-10.1,0.2-12.8c0.8-1.1,1.9-1.8,3.3-2.1c5.3-0.9,6.4,4.6,6.9,7.2c0.4,1.9,0.8,4.1,1.8,6.3
						c1.9,4.2,3.2,11.1,4.2,17.3c0.6,3.5,1.2,6.8,1.7,8.4c0.3,1.1,1,2.9,1.8,5.1c2.9,7.8,7.2,19.5,7.6,26.1
						c0.5,7.8-5.7,47.6-6.5,50.3s-5,31.3-4.6,36.1c0.8,7.8-2.5,24.7-5,36.6c-0.2,1-0.4,1.7-0.4,2.1l-0.1,0.7
						c-2.4,12.6-6.9,34.8-9.2,42.2c-0.2,0.7-0.4,1.3-0.6,1.9c2.3-1.3,6.5-4.1,13.7-9.9c7.5-6,13.1-16.6,16.2-22.4
						c0.5-1,1-1.9,1.4-2.5c1.6-2.9,7.5-23,10.8-35l0.1-0.4l0.2-0.4c1.7-3.1,4-4.5,6.4-3.9c3.9,0.9,4,5.8,4.1,7.9
						c0.3,8.9-3.5,33.3-9.4,48.6c-3.6,9.5-11,19.6-21.3,29.2l-0.3,0.3c-0.7,0.6-1.7,1.2-4.4,3c-6.6,4.1-20.3,12.6-26.8,21.2
						c-9.5,12.3-46.5,35.7-53.6,37.8c-4.7,1.3-21.7,10.3-28,13.7c-4.7,2.7-9.6,5.5-13.9,8.1c14.2-3.2,23.7-11.8,25.9-13.9
						c1.3-1.3,3.2-1.6,4.9-0.9c3.3,1.2,5.9,5.9,6.4,11.1c0.4,5.2-1,15.2-15.2,23.4c-13.9,8-24.8,8.3-36.3,8.7
						c-8.5,0.3-17.2,0.5-28.3,3.8c-7.8,2.3-13.2,6.1-16,11.2c-3.7,6.7-1.6,13.8-1.6,13.9l0.2,0.8l-0.1,0.8c0,0.3-1,7.3-7.1,11.7
						C560.2,461.4,556.3,462.6,551.8,462.6z M535.3,432.4c-0.7,3.1-1.8,10.5,1.5,15.9c2.1,3.4,5.5,5.5,10.6,6.4
						c4.9,0.9,8.8,0.4,11.5-1.6c2.7-1.9,3.8-4.9,4.1-6.2c-0.6-2.7-1.8-10.6,2.4-18.4c3.7-7,10.6-12,20.4-14.9
						c12-3.5,21.6-3.8,30.1-4.1c11-0.3,20.6-0.6,32.8-7.7c9.1-5.3,11.3-10.9,11.6-14.8c0.1-2.3-0.4-4.1-1-5.3
						c-6.1,5.2-22.1,16.6-43.7,15.2h-0.1l-2.7-0.2l-0.6-2.7c-0.6-2.6,1.4-3.9,2.6-4.7c0.7-0.5,1.8-1.2,3.1-2
						c2.2-1.4,5.3-3.2,9.2-5.5c6.6-3.9,13.4-7.8,13.4-7.8h0.1c2.4-1.3,23.2-12.6,29.5-14.3c5-1.4,41.2-23.9,49.8-35.2
						c7.3-9.6,21.8-18.6,28.7-22.9c1.4-0.9,2.9-1.8,3.3-2.1l0.3-0.3c12-11.2,17.2-20.6,19.4-26.5c3-7.8,5.5-18.8,7.1-28.3
						c-2.3,7.8-4.8,15.5-6.1,17.7c-0.4,0.6-0.8,1.4-1.3,2.4c-3.3,6.2-9.4,17.7-18.1,24.6c-14.6,11.8-18.3,12.4-19.7,12.6
						c-1.1,0.2-3.7,0.6-5.5-1.4c-2.1-2.4-1.2-5.9,0.4-11.1c1.6-5.1,4.9-20.2,9-41.4l0.1-0.7c0.1-0.4,0.2-1.2,0.5-2.2
						c3.8-17.7,5.4-29.3,4.9-34.4c-0.6-6,3.9-35.8,4.8-39l0,0c0.7-2.7,6.7-40.6,6.2-47.6c-0.4-5.6-4.6-17.2-7.2-24.1
						c-0.9-2.3-1.5-4.2-1.9-5.4c-0.7-2.1-1.3-5.5-2-9.4c-0.3-1.6-0.6-3.3-0.9-5c0.2,3.9,0.4,7.7,0.5,9.7c0.2,4.2,3.1,19.7,4.3,22.7
						c1.8,4.6,3,12.1,1.8,18.7c-0.3,1.6-0.6,3.4-0.9,5.3c-1.2,7.8-2.1,13.2-4.1,15.9c-0.1,0.2-0.3,0.4-0.5,0.7
						c-2,2.9-6.2,8.8-12.3,9.2c-3.4,0.2-6.6-1.3-9.6-4.6c-1.6-1.8-3.9-6.3-7.6-13.5c-2.2-4.4-4.5-9-5.9-11.1
						c-1.4-2.2-2.9-5.3-4.4-8.5c-2-4.2-4.2-8.9-6.5-11.7l-0.7-0.9c-3.9-4.9-7.6-9.5-16.5-17.9c-5.3-5-8.1-8.3-10-10.9
						c2.1,3.7,3.9,6.9,5.3,8.7c3.7,4.9,9.3,15.3,12.6,21.5c0.7,1.2,1.2,2.2,1.6,3c1,1.8,2.7,5.2,4.6,9.1c2.8,5.5,5.9,11.8,7.6,14.9
						c2.2,4,5.6,11.6,9,19c1.2,2.7,2.4,5.3,3.5,7.7c1.8,3.8,10.8,24,12.2,42.8c1.1,16-0.7,27.2-3.7,39.3c-1.5,5.8-2,11.6-2.6,17.2
						c-0.5,5.2-1,10-2.1,14.3c-0.3,3.1-2.5,22.6-15.1,35.3c-12.1,12.5-26.9,21.9-31.8,25l-0.7,0.5c-1.4,0.9-4.7,2.6-9.2,5
						c-8.8,4.6-22,11.5-28.1,15.9c-4.2,3-16.1,10.9-28.8,19.3c-13.8,9.1-30.9,20.4-32.7,22.1c-3.3,3.4-7.3,4.7-7.8,4.8l-0.3,0.1
						h-0.3c-6.2,0.7-12.8,2.5-14,3.6c-2.3,2.9-3.5,5.9-3.3,8.4C546.3,425.1,540.7,429.4,535.3,432.4z M538.5,421.1L538.5,421.1
						L538.5,421.1z M538.6,420.6L538.6,420.6L538.6,420.6z M661.5,380L661.5,380L661.5,380z"/>
				</g>
			</g>
		</g>
		<g>
			<g>
				<g>
					<path class="st2" d="M446,463.1c-4.7,0-8.6-1.2-11.8-3.6c-6-4.5-6.9-11.4-7-11.7l-0.1-0.8l0.2-0.8c0,0,1.4-4.7,0-10.1
						c-1.9-7.1-7.7-12.2-17.4-15.1c-11-3.4-19.8-3.7-28.2-4.1c-11.5-0.5-22.4-0.9-36.2-9.1c-14.2-8.4-15.5-18.4-15-23.6
						s3.2-9.9,6.5-11.1c1.8-0.7,3.6-0.3,4.9,1c2.2,2.1,11.6,10.8,25.8,14.2c-4.2-2.6-9.1-5.4-13.7-8.2c-6.2-3.5-23.2-12.6-27.9-14
						c-7.1-2.2-43.9-25.9-53.2-38.3c-6.4-8.5-19.9-17.2-26.4-21.3c-2.9-1.8-3.9-2.5-4.5-3.1l-0.2-0.2c-10.1-9.5-17.6-20-21.1-29.5
						c-5.7-15.6-9.3-39.9-8.9-48.8c0.1-2.1,0.3-7,4.2-7.8c2.4-0.5,4.7,0.9,6.3,4l0.2,0.4l0.1,0.4c3.2,12,8.8,32.2,10.5,35.2
						c0.4,0.7,0.8,1.6,1.4,2.6c3,5.7,8.5,16.4,15.9,22.4c7.1,5.9,11.3,8.7,13.6,10c-0.1-0.5-0.3-1.1-0.5-1.9
						c-2.3-7.6-6.7-31.2-8.3-40c-0.3-1.5-0.5-2.5-0.5-2.9c-0.1-0.4-0.2-1-0.4-1.9c-2.5-12.1-5.6-29-4.7-37
						c0.5-4.7-3.4-33.4-4.2-36.1c-0.7-2.5-6.6-42.2-5.9-50.3c0.5-6.6,5-18.4,8-26.2c0.8-2.1,1.5-3.8,1.8-4.9
						c0.5-1.6,1.2-4.9,1.8-8.3c1.2-6.1,2.5-13.1,4.4-17.3c1-2.2,1.5-4.4,1.9-6.3c0.5-2.6,1.6-8.1,6.9-7.2c1.3,0.2,2.5,1,3.2,2.1
						c1.9,2.7,1.2,7.2,0.1,12.6c-0.1,0.6-0.3,1.4-0.3,1.7c0,1.1-0.2,3.9-0.6,10.1c-0.3,4.1-0.6,8.4-0.7,10.4c-0.3,4.7-3.4,21-5.1,25
						c-1,2.5-2.5,8.8-1.5,14.7c0.3,1.6,0.5,3.4,0.8,5.3c0.6,4,1.6,11.4,2.7,13c0.2,0.2,0.3,0.5,0.5,0.8c1.2,1.8,4.1,6,6.7,6.2
						c1.1,0.1,2.3-0.6,3.7-2.1c1-1.1,4.3-7.4,6.4-11.6c2.5-4.8,4.9-9.4,6.5-11.9c1.2-1.8,2.6-4.6,4-7.5c2.2-4.5,4.8-9.6,7.6-13.1
						l0.4-0.4c4.2-5.2,8.1-10.1,17.8-19c6.8-6.3,9-9.5,11-12.4c0.8-1.1,1.5-2.2,2.5-3.5c1.2-1.5,3-3.9,4.9-6.4
						c3.4-4.4,7.2-9.4,9.4-12c2.5-2.9,5.8-3.7,8.1-2c4.1,3.1,0.2,9.2-1.5,11.9c-2.3,3.5-5.3,9-8.2,14.3c-4.1,7.4-7.9,14.4-10.6,17.8
						c-3.6,4.6-9.7,15.8-12.6,21.2c-0.5,0.9-0.9,1.6-1.2,2.2c-1,1.7-2.9,5.5-4.9,9.5c-2.7,5.3-5.8,11.4-7.6,14.4
						c-2.1,3.7-5.6,11.1-8.9,18.3c-1.3,2.7-2.5,5.4-3.6,7.7c-1.7,3.7-10.5,22.8-11.9,40.2c-1.2,14.9,0.4,25.6,3.1,37
						c1.6,6.4,2.1,12.8,2.6,18.5c0.4,4.9,0.8,9.6,1.8,13.2l0.1,0.4v0.4c0,0.2,1.4,19.5,12.7,31.3c11.6,12.2,25.8,21.3,30.4,24.3
						l0.5,0.3c1.1,0.7,4.7,2.6,8.8,4.8c9.4,5,22.2,11.9,28.7,16.7c4,3,16.4,11.4,28.4,19.5c22.1,14.9,32,21.7,33.6,23.4
						c1.6,1.7,3.7,2.6,4.4,2.9c4.8,0.7,15.3,2.5,18.4,6.5c3.4,4.3,5,8.9,4.8,13.1c0.9,1.2,4.6,3.6,8.1,5.2l1.6,0.7l0.5,1.7
						c0.2,0.6,3.8,14.1-2.6,24.1c-3.3,5.2-8.5,8.4-15.6,9.6C449.5,463,447.7,463.1,446,463.1z M434.6,447.5c0.3,1.2,1.3,4.2,4,6.2
						s6.6,2.6,11.6,1.7c5-0.8,8.5-2.9,10.6-6.3c3.5-5.5,2.6-13.3,2-16.6c-5.5-2.7-11.2-6.6-10.8-11.3c0.2-2.4-0.9-5.5-3.2-8.4
						c-1.1-1.1-7.8-3-14-3.8h-0.3l-0.3-0.1c-0.4-0.1-4.5-1.5-7.8-4.9c-1.7-1.7-18.7-13.1-32.4-22.3c-12.6-8.5-24.6-16.6-28.7-19.7
						c-6-4.4-19.1-11.5-27.7-16.1c-4.6-2.5-8-4.3-9.3-5.2l-0.5-0.3c-4.8-3.1-19.5-12.6-31.7-25.4c-12.4-12.9-14.4-32.5-14.7-35.5
						c-1.1-4.2-1.5-9-1.9-14.2c-0.5-5.7-1-11.5-2.4-17.4c-2.5-10.5-4.7-22.5-3.3-39.3c1.5-18.7,10.8-38.9,12.6-42.7
						c1.1-2.3,2.3-5,3.6-7.7c3.4-7.3,6.9-14.8,9.2-18.8c1.7-3,4.7-8.9,7.4-14.2c2.2-4.2,4-7.8,5-9.7c0.3-0.5,0.7-1.3,1.1-2.1
						c3.2-6,9.3-17.1,13.3-22.3c1.4-1.7,3.3-4.9,5.4-8.7c-1.9,2.6-4.7,5.9-10.2,10.9c-9.2,8.5-12.8,13-17,18.2l-0.4,0.5
						c-2.3,2.9-4.7,7.6-6.7,11.8c-1.6,3.2-3,6.1-4.5,8.3c-1.4,2.2-3.8,6.8-6.1,11.2c-3.6,7.1-6,11.5-7.6,13.2
						c-3,3.2-6.3,4.7-9.7,4.5c-6.1-0.5-10.2-6.5-12.2-9.4c-0.2-0.2-0.3-0.5-0.5-0.7c-2-2.8-2.9-8.2-4-16.2c-0.3-1.8-0.5-3.6-0.7-5.1
						c-1.3-7.5,0.6-15.2,1.9-18.6c1.2-3.1,4.3-18.5,4.6-22.7c0.1-2,0.4-5.8,0.6-9.7c-0.4,1.7-0.7,3.5-1,5.1
						c-0.7,3.9-1.4,7.2-2.1,9.3c-0.4,1.2-1.1,2.9-1.9,5.1c-2.6,6.9-7,18.6-7.5,24.2c-0.5,6.8,5,44.9,5.7,47.7c0.9,3.3,5.1,33,4.4,39
						c-0.6,5.1,1,16.8,4.6,34.7c0.2,0.9,0.3,1.6,0.4,2s0.3,1.5,0.6,2.9c1.5,7.9,5.9,32,8.1,39.3c1.5,5.1,2.4,8.7,0.3,11
						c-1.8,2-4.4,1.6-5.5,1.4c-2.2-0.4-6.6-2.1-19.6-12.8c-8.5-7-14.5-18.5-17.7-24.7c-0.5-1-0.9-1.8-1.3-2.5
						c-1.3-2.3-3.6-10-5.9-17.8c1.5,9.4,3.9,20.3,6.8,28.4c3.1,8.5,10,18,19.3,26.7l0.2,0.2c0.4,0.3,2,1.3,3.4,2.3
						c6.9,4.4,21.1,13.5,28.4,23.1c8.5,11.3,44.5,34.2,49.4,35.7c6.3,1.9,27,13.4,29.4,14.7h0.1c0.1,0,6.7,4,13.3,7.9
						c3.9,2.3,7,4.2,9.2,5.6c4.5,2.8,6.3,4,5.7,6.8l-0.6,2.7l-2.8,0.2c-1.1,0.1-2.1,0.1-3.2,0.1c-20,0-34.6-10.7-40.4-15.7
						c-0.6,1.2-1.1,3-1,5.3c0.2,3.8,2.4,9.5,11.4,14.9c12.2,7.2,21.7,7.6,32.7,8c8.5,0.3,18.1,0.7,30.1,4.4
						c9.8,3,16.6,8.1,20.3,15.1C436.6,436.9,435.3,444.8,434.6,447.5z M247.1,298L247.1,298L247.1,298z M267.2,68c0,0.1,0,0.1,0,0.2
						C267.2,68.1,267.2,68,267.2,68z"/>
				</g>
			</g>
		</g>
	</g>
</g>
<g>
	<path class="st2" d="M222.1,836.6c-2.5,4.6-5.4,9.9-8.6,15.9c-3.2,6-5.5,10.3-6.9,12.9c-4.5,8.4-8,15.2-10.6,20.2s-3.9,7.7-4.1,8
		l-7.5-0.2c-2.6-16.9-5.1-32.2-7.8-46.1c-2.6-13.9-4.2-21.9-4.6-24.1h-0.1c-4.2,8-9.3,17.8-15.4,29.4c-6,11.7-9.5,18.4-10.4,20.2
		l-7-3.7c0.4-0.7,1.9-3.3,4.3-7.9c2.5-4.5,5.8-10.8,10.1-18.9c1.7-3.2,4-7.5,6.8-12.9s5.8-11.1,8.8-17.1l8.5,0.4
		c0.2,1,1.7,9.2,4.5,24.6c2.8,15.4,5.5,29.8,8.2,43.1h0.1c2.4-4.6,6.4-12.3,12-23.2s9.8-18.9,12.6-24.2L222.1,836.6z"/>
	<path class="st2" d="M257.3,922.7c-0.3-0.1-2.4-0.9-6.3-2.4c-3.9-1.5-8.7-3.4-14.5-5.5c-4-1.5-7.7-2.9-11-4.1
		c-3.3-1.2-6.1-2.3-8.4-3.1c0.8-1.8,2.3-5.7,4.7-11.8c2.3-6,4.8-12.3,7.2-18.8c1.3-3.6,3.1-8.3,5.3-14.1c2.2-5.9,4.4-11.9,6.7-18.2
		c2.2,0.8,5,1.9,8.3,3.2s6.8,2.6,10.3,4c6,2.3,10.9,4.1,14.7,5.5c3.8,1.4,5.8,2.2,6.1,2.3l-2.5,6.6c-0.3-0.1-2.3-0.9-5.9-2.3
		c-3.6-1.4-8.1-3.2-13.5-5.2c-2.4-0.9-4.7-1.8-6.9-2.6c-2.3-0.8-4.1-1.5-5.4-2c-1.3,3.6-2.7,7.1-4.1,10.6c-1.4,3.5-2.7,6.8-3.9,10
		c1.4,0.5,3.1,1.2,5,1.9s3.6,1.4,5.2,2c5.5,2.1,10.5,3.9,14.9,5.6c4.4,1.6,6.7,2.5,7,2.6l-2.5,6.5c-0.3-0.1-2.8-1.1-7.8-3
		c-4.9-1.9-9.4-3.7-13.5-5.2c-1.5-0.6-3.3-1.2-5.4-2c-2.1-0.8-3.9-1.4-5.3-2c-2.3,5.9-4,10.7-5.3,14.2s-2.4,6.4-3.2,8.8
		c1.8,0.7,4.1,1.6,6.7,2.6c2.6,1,5.5,2.1,8.5,3.3c4.7,1.8,8.6,3.3,11.8,4.4c3.2,1.2,5,1.8,5.4,2L257.3,922.7z"/>
	<path class="st2" d="M331.5,939.4l-7.4,3.4c-0.5-0.9-2.3-4.4-5.3-10.5c-3-6-7.7-15.5-14-28.2l0.2-0.4c1.3,0,3.2-0.3,5.5-0.8
		s4.4-1.3,6.1-2.2c1.5-0.8,2.9-1.9,4.2-3.3c1.3-1.4,2.4-3.4,3.1-6.2c0.7-2.5,0.6-4.8-0.3-7c-0.8-2.2-2.3-4-4.4-5.4
		c-1.7-1.2-3.6-2.2-5.6-2.9s-3.9-1.3-5.7-1.7c-1.2-0.3-2.1-0.5-2.7-0.7c-0.6-0.1-1.1-0.3-1.4-0.3c-1.7,6.2-3.2,11.6-4.5,16.3
		s-2.2,8-2.7,10c-1.2,4.5-2.8,10.5-4.8,18.2s-3.2,12.5-3.7,14.4l-8-2.1c0.6-1.9,1.6-5.7,3.2-11.3s3.4-12.6,5.7-20.9
		c0.4-1.6,1.2-4.6,2.4-9c1.2-4.4,3.2-12.4,6.1-24c0.3,0.1,2,0.5,4.9,1.2s5.6,1.4,8.1,2.1c2.8,0.8,5.5,1.6,8.1,2.7
		c2.6,1,5,2.4,7.2,4.2c2.8,2.2,4.9,4.9,6,8c1.2,3.1,1.3,6.5,0.3,10.1c-1.2,4.6-3.7,8.1-7.3,10.4c-3.7,2.3-6.9,3.9-9.9,4.7l-0.1,0.2
		c3.1,6.4,6.5,13.1,10.4,20C329.2,935.2,331.2,938.9,331.5,939.4z"/>
	<path class="st2" d="M413.4,890.9c-0.2,0.4-4.9,7.4-14.1,21.1c-9.2,13.7-17.9,26.9-26.3,39.6l-6.6-1c-4.5-16.4-8.8-32-12.9-46.6
		s-6.3-22.3-6.5-23l8.4-2.6c0.1,0.7,2,8.1,5.7,22.2s7.3,27.3,10.8,39.8h0.1c7.3-11.1,14.9-22.7,22.8-35s12-18.6,12.3-19L413.4,890.9
		z"/>
	<path class="st2" d="M427.7,956.7l-8.3-0.7c0.2-2,0.5-5.6,1-10.7c0.5-5.2,1.1-12.6,1.9-22.2c0.3-3.8,0.7-8.8,1.1-15
		c0.5-6.2,0.9-12.6,1.3-19.3l8.3,0.7c-0.4,4.8-0.9,10.4-1.5,16.7s-1,11.5-1.3,15.6c-0.8,10.2-1.4,18.1-1.8,23.7
		C428,950.8,427.8,954.6,427.7,956.7z"/>
	<path class="st2" d="M461.7,958.3l-8.3-0.3c0.1-2,0.3-5.6,0.5-10.8s0.5-12.6,0.8-22.3c0.1-3.8,0.3-8.9,0.4-15.1
		c0.2-6.2,0.3-12.7,0.4-19.4l8.3,0.3c-0.2,4.8-0.4,10.4-0.7,16.8c-0.2,6.4-0.4,11.6-0.6,15.6c-0.3,10.2-0.5,18.1-0.6,23.7
		C461.8,952.5,461.8,956.3,461.7,958.3z"/>
	<path class="st2" d="M547.9,936.5c0.2,3.5-0.4,6.5-1.8,9.2c-1.5,2.7-3.5,5-6.1,6.8c-2.4,1.6-5.2,3-8.4,3.9c-3.2,1-6.8,1.6-10.8,1.9
		c-2.1,0.1-4.4,0.2-6.7,0.3c-2.3,0-3.6,0-4,0l-0.9-7.2c0.5,0,1.8,0.1,3.9,0.1c2.2,0,4.7,0,7.6-0.2c1.8-0.1,4.1-0.5,6.8-1.2
		c2.8-0.7,4.9-1.4,6.4-2.3c1.9-1.1,3.4-2.4,4.3-3.8c1-1.4,1.4-3.2,1.2-5.3c-0.2-2.2-0.8-4.1-2-5.6s-3-2.9-5.6-4.1
		c-1.6-0.8-3.8-1.7-6.4-2.8c-2.6-1-4.9-2.1-7-3.2c-3.6-1.8-6.2-4-7.8-6.3c-1.6-2.4-2.5-5.1-2.7-8.1c-0.2-3.1,0.3-5.8,1.4-8.2
		c1.2-2.4,2.8-4.4,4.8-6.2s4.6-3.1,7.6-4.2c3.1-1,6.5-1.7,10.3-1.9c2.1-0.1,4.2-0.2,6.3-0.3c2.1,0,3.4,0,3.7,0l1.2,7.2
		c-0.3,0-1.5,0-3.7-0.1s-4.8,0-8,0.2c-1.9,0.1-3.8,0.5-5.8,1c-2,0.6-3.7,1.3-5.1,2.3c-1.3,0.9-2.4,2-3.2,3.5
		c-0.8,1.4-1.2,3.1-1.1,4.9c0.1,1.6,0.7,3.2,1.8,4.7s3.1,2.9,5.9,4.3c1.4,0.7,3.3,1.6,5.7,2.5s4.6,2,6.9,3.1c3.5,1.8,6.2,3.9,8,6.3
		C546.6,930.4,547.6,933.2,547.9,936.5z"/>
	<path class="st2" d="M608,886.6c-0.5,0.1-2.8,0.4-6.7,0.9s-9.9,1.4-17.8,2.5c0.9,6.8,1.6,12,2.1,15.6c0.5,3.5,1.2,8.3,2.1,14.4
		c0.9,5.9,1.7,11.8,2.7,17.8c0.9,6,1.6,10,1.9,12l-8.2,1.2c-0.2-2-0.8-6.1-1.6-12.3s-1.7-12.2-2.6-18.1c-0.8-5.8-1.5-10.4-2-13.8
		c-0.5-3.4-1.3-8.7-2.4-15.7c-7.1,1-12.8,1.8-17.2,2.5s-6.8,1.1-7.2,1.1l-1-6.9c3.4-0.5,7.6-1.1,12.5-1.8s10.1-1.4,15.7-2.2
		c8-1.2,14.8-2.2,20.2-3s8.3-1.3,8.7-1.3L608,886.6z"/>
	<path class="st2" d="M670.4,864.8c1.5,6.3,2.7,11.5,3.6,15.6c0.9,4.1,1.7,7.7,2.5,10.7c0.9,3.7,1.7,6.9,2.3,9.5s1.2,4.9,1.7,6.8
		c0.9,3.8,1.1,7.3,0.7,10.4c-0.4,3.2-1.5,6.1-3.3,8.8s-4.2,5.1-7.2,7.1s-6.8,3.6-11.1,4.6c-4.4,1-8.4,1.4-12,0.9
		c-3.6-0.4-6.9-1.4-9.7-3.1c-2.8-1.6-5.1-3.7-6.9-6.4c-1.8-2.6-3.2-5.8-4.1-9.6c-0.5-1.9-1-4.2-1.6-6.8s-1.4-5.8-2.3-9.5
		c-0.7-3-1.6-6.6-2.7-10.7c-1-4.1-2.3-9.3-3.8-15.5l8.1-1.9c0.2,0.8,0.8,3.6,1.9,8.4c1.1,4.8,2.6,11,4.4,18.8
		c0.6,2.4,1.1,4.8,1.8,7.3c0.6,2.5,1.2,5.1,1.9,7.7c1.4,6,4.2,10.1,8.4,12.4c4.2,2.3,9.2,2.7,15,1.3c6.3-1.5,10.7-4.1,13.2-7.8
		s3-8.7,1.5-15c-0.6-2.6-1.2-5.2-1.8-7.8c-0.6-2.5-1.2-5-1.7-7.3c-1.8-7.7-3.4-14.1-4.6-19c-1.2-4.9-1.9-7.6-2-8.1L670.4,864.8z"/>
	<path class="st2" d="M754.7,873.2c1.9,5.6,2.2,11,0.9,16.2s-3.7,9.8-7.3,13.8c-3.1,3.6-6.7,6.7-11,9.5s-9.4,5.1-15.2,7.1
		c-2.2,0.8-4.4,1.5-6.6,2.1c-2.2,0.7-3.3,1-3.6,1.1c-0.1-0.2-1.3-3.8-3.6-11s-4.6-14-6.8-20.5c-1.2-3.4-2.6-7.8-4.5-13.1
		c-1.8-5.3-4.1-11.8-6.8-19.4c0.3-0.1,1.8-0.6,4.3-1.5c2.6-0.9,4-1.4,4.2-1.5c6.6-2.2,12.6-3.6,18.1-4.2c5.5-0.5,10.7-0.2,15.6,1
		c5.6,1.4,10.3,3.8,14,7.2C750.1,863.3,752.9,867.7,754.7,873.2z M746.6,875.9c-1.4-4.1-3.6-7.6-6.5-10.4c-2.9-2.8-6.7-4.7-11.4-5.8
		c-4.4-1-8.9-1.3-13.5-0.7c-4.7,0.6-8.8,1.5-12.4,2.7c-0.4,0.2-0.9,0.3-1.5,0.5c-0.5,0.2-0.9,0.3-1,0.3c1.6,5.1,3,9.2,4.1,12.6
		c1.1,3.3,2,6,2.7,7.9c0.5,1.4,1.6,4.7,3.3,9.8c1.8,5.1,4.2,12.3,7.3,21.4c0.4-0.2,0.9-0.3,1.2-0.4c0.4-0.1,0.8-0.3,1.2-0.4
		c4.1-1.4,8.1-3.3,12-5.7c3.8-2.4,6.9-4.9,9.2-7.6c2.9-3.4,4.9-7.1,6-11.2C748.4,884.8,748.1,880.5,746.6,875.9z"/>
	<path class="st2" d="M793.2,893.4l-7.7,3.1c-0.7-1.9-2-5.2-3.9-10.1c-1.9-4.8-4.6-11.7-8.3-20.7c-1.4-3.6-3.3-8.2-5.7-14
		c-2.4-5.7-4.9-11.7-7.5-17.9l7.7-3.1c1.7,4.5,3.8,9.7,6.1,15.6c2.3,5.9,4.3,10.8,5.8,14.5c3.8,9.5,6.8,16.8,9,21.9
		C790.9,888,792.4,891.5,793.2,893.4z"/>
	<path class="st2" d="M856.9,827.5c2.3,4.9,3.6,9.8,3.9,14.8c0.3,4.9-0.3,9.3-1.8,13.3c-1.6,4.4-3.8,8.1-6.5,11s-6,5.3-9.9,7.1
		c-3.8,1.8-7.6,2.8-11.6,3.1s-7.9-0.2-11.7-1.5c-4.3-1.4-8.3-3.7-12.1-7.1c-3.8-3.4-6.9-7.7-9.4-12.9c-2.2-4.7-3.5-9.3-3.9-13.8
		s0.1-9,1.5-13.4c1.3-4.1,3.4-7.8,6.3-11.1c2.9-3.3,6.4-5.9,10.4-7.8c4.1-1.9,8.2-3,12.4-3.2s8.2,0.4,12,1.9
		c4.4,1.6,8.4,4.2,11.8,7.5S854.7,822.9,856.9,827.5z M849.5,831.9c-1.9-4-4.4-7.5-7.5-10.7s-6.6-5.4-10.6-6.7
		c-2.7-0.9-5.4-1.3-8.1-1.2c-2.7,0.1-5.5,0.8-8.3,2.1c-2.7,1.3-5.1,3-6.9,5.1c-1.9,2.1-3.3,4.6-4.4,7.4c-1.3,3.6-1.8,7.5-1.4,11.7
		c0.3,4.2,1.4,8.3,3.3,12.2c2.1,4.4,4.6,8,7.6,10.8s6.4,4.8,10,6c2.5,0.9,5.2,1.2,8.1,1.1c2.9-0.1,5.6-0.8,8.3-2.1s5-3,6.9-5.1
		s3.4-4.5,4.4-7.3c1.2-3.3,1.8-6.9,1.7-11C852.5,840.2,851.4,836.1,849.5,831.9z"/>
</g>
<g class="st8">
	
		<linearGradient id="SVGID_00000037677857231305426230000007204235656842728073_" gradientUnits="userSpaceOnUse" x1="842.0293" y1="-252.518" x2="221.9836" y2="1082.4438" gradientTransform="matrix(1 0 0 -1 0 1000)">
		<stop  offset="0" style="stop-color:#CE8439"/>
		<stop  offset="1" style="stop-color:#B02D24"/>
	</linearGradient>
	<path style="display:inline;fill:url(#SVGID_00000037677857231305426230000007204235656842728073_);" d="M382.5,271.2h-7
		c-5.2,0-9.4-4.2-9.4-9.4v-25.3c0-5.2,4.2-9.4,9.4-9.4h7V271.2z"/>
	
		<linearGradient id="SVGID_00000119117259887830677050000006533965769404157583_" gradientUnits="userSpaceOnUse" x1="860.7835" y1="-243.8073" x2="240.7376" y2="1091.1548" gradientTransform="matrix(1 0 0 -1 0 1000)">
		<stop  offset="0" style="stop-color:#CE8439"/>
		<stop  offset="1" style="stop-color:#B02D24"/>
	</linearGradient>
	<path style="display:inline;fill:url(#SVGID_00000119117259887830677050000006533965769404157583_);" d="M405.8,294.8h-8
		c-5.2,0-9.4-4.2-9.4-9.4v-72.5c0-5.2,4.2-9.4,9.4-9.4h8V294.8z"/>
	
		<linearGradient id="SVGID_00000089573970514118340250000006495924607952393103_" gradientUnits="userSpaceOnUse" x1="1029.7389" y1="-165.3331" x2="409.693" y2="1169.6289" gradientTransform="matrix(1 0 0 -1 0 1000)">
		<stop  offset="0" style="stop-color:#CE8439"/>
		<stop  offset="1" style="stop-color:#B02D24"/>
	</linearGradient>
	<path style="display:inline;fill:url(#SVGID_00000089573970514118340250000006495924607952393103_);" d="M597.7,271.2h7
		c5.2,0,9.4-4.2,9.4-9.4v-25.3c0-5.2-4.2-9.4-9.4-9.4h-7V271.2z"/>
	
		<linearGradient id="SVGID_00000052797093659602558890000012143803496349805212_" gradientUnits="userSpaceOnUse" x1="1010.9847" y1="-174.0438" x2="390.9389" y2="1160.9182" gradientTransform="matrix(1 0 0 -1 0 1000)">
		<stop  offset="0" style="stop-color:#CE8439"/>
		<stop  offset="1" style="stop-color:#B02D24"/>
	</linearGradient>
	<path style="display:inline;fill:url(#SVGID_00000052797093659602558890000012143803496349805212_);" d="M574.4,294.8h8
		c5.2,0,9.4-4.2,9.4-9.4v-72.5c0-5.2-4.2-9.4-9.4-9.4h-8V294.8z"/>
	
		<linearGradient id="SVGID_00000179618913229309011990000007234292627573267846_" gradientUnits="userSpaceOnUse" x1="935.9782" y1="-208.8819" x2="315.9323" y2="1126.0801" gradientTransform="matrix(1 0 0 -1 0 1000)">
		<stop  offset="0" style="stop-color:#CE8439"/>
		<stop  offset="1" style="stop-color:#B02D24"/>
	</linearGradient>
	<path style="display:inline;fill:url(#SVGID_00000179618913229309011990000007234292627573267846_);" d="M559.9,188.5h-13.3
		c-3.7,0-6.7,3-6.7,6.7v43.1h-99.4v-43.1c0-3.7-3-6.7-6.7-6.7h-13.3c-3.7,0-6.7,3-6.7,6.7V303c0,3.7,3,6.7,6.7,6.7h13.3
		c3.7,0,6.7-3,6.7-6.7v-43.1h99.4V303c0,3.7,3,6.7,6.7,6.7h13.3c3.7,0,6.7-3,6.7-6.7V195.3C566.6,191.5,563.6,188.5,559.9,188.5z"/>
</g>
</svg>
