<?xml version="1.0" encoding="utf-8"?>
<!-- Generator: Adobe Illustrator 27.7.0, SVG Export Plug-In . SVG Version: 6.00 Build 0)  -->
<svg version="1.1" id="Calque_1" xmlns="http://www.w3.org/2000/svg" xmlns:xlink="http://www.w3.org/1999/xlink" x="0px" y="0px"
	 viewBox="0 0 1000 1000" style="enable-background:new 0 0 1000 1000;" xml:space="preserve">
<style type="text/css">
	.st0{fill:#FFFFFF;}
	.st1{clip-path:url(#SVGID_00000018952970819640413570000005819445942252901799_);}
	.st2{clip-path:url(#SVGID_00000110456291452356560970000016620571223923588273_);}
	.st3{clip-path:url(#SVGID_00000098190850300183301260000001324090242274218417_);}
	.st4{clip-path:url(#SVGID_00000003827925454125995200000008602487011296470438_);}
	.st5{clip-path:url(#SVGID_00000144320799222008956500000011161995006346248127_);}
</style>
<path class="st0" d="M498.5,977.9l-4.1-9.3c-11.5-26.5-32.5-40.5-54.7-55.3c-34.1-22.9-72.8-48.7-81.8-125.6l-0.2-2.3l1.8-1.6
	c26.1-22.9,36.8-63.6,41.2-93.7c4.8-33.1,3.4-60.7,3.4-61.1l8.9-0.5c0.1,1.2,1.6,29-3.5,62.8c-6.6,44.8-20.8,77.5-42.4,97.5
	c9,71.1,43.8,94.5,77.6,117c21,14,41,27.3,53.9,50.9c12.9-23.6,32.8-36.9,53.9-50.9c33.8-22.6,68.7-46,77.6-117
	c-21.6-19.9-35.9-52.7-42.6-97.5c-5.1-33.9-3.7-61.7-3.7-62.8l8.9,0.5c0,0.2-1.4,28.1,3.6,61.2c4.6,30.1,15.4,70.8,41.4,93.5
	l1.8,1.6l-0.2,2.3c-9,76.9-47.7,102.8-81.8,125.6c-22.2,14.9-43.2,28.9-54.7,55.3L498.5,977.9L498.5,977.9z"/>
<path class="st0" d="M498.5,780.3c-27.4,0-57.6-17.1-63.2-55.3l-0.2-1.9l1.2-1.4c40.4-51.5,8.9-112.7-14-157.4
	c-9.6-18.7-17.1-33.4-17.8-44.2v-0.8l0.2-0.8c1.2-3.5,2.2-6.7,3-9.7c4.9-18.4,15.7-28.6,23.5-31.7l0,0c24.7-9.9,110.5-9.9,135.2,0
	c7.8,3.1,18.6,13.3,23.5,31.7c0.8,3,1.8,6.2,3,9.7l0.2,0.8v0.8c-0.7,10.8-8.3,25.5-17.8,44.2c-23,44.7-54.4,105.9-14,157.4l1.2,1.4
	L562,725C556.1,763.2,525.9,780.3,498.5,780.3L498.5,780.3z M444.2,725.5c5.6,31.7,31.1,46,54.3,46c23.1,0,48.6-14.3,54.3-46
	c-4.3-5.7-7.9-11.6-10.8-17.7c-1.3,12.8-5.5,23.4-12.7,31.5c-12.7,14.4-29.8,15.4-30.5,15.4h-0.5c-0.7,0-17.8-1.1-30.5-15.4
	c-7.2-8.1-11.4-18.7-12.7-31.5C452.2,713.9,448.5,719.9,444.2,725.5z M463.5,701.4c0.4,13.4,4,24.2,10.8,32
	c9.5,10.8,22.3,12.5,24.2,12.6c1.9-0.2,14.9-1.9,24.2-12.6c6.8-7.8,10.4-18.4,10.8-32c-5,3.4-12.1,6.7-19.6,5.4
	c-6-1-11.1-4.6-15.3-10.8c-4.2,6.1-9.3,9.7-15.3,10.8C475.7,708.1,468.6,704.8,463.5,701.4L463.5,701.4z M461.8,688.5l0.7,0.8
	c2.8,2.9,11.5,10.2,19.2,8.9c4.9-0.8,9.2-5.1,12.7-12.9l4.1-9l4.1,9c3.5,7.8,7.8,12.1,12.7,12.9c7.7,1.3,16.4-6,19.2-8.9l0.7-0.8
	c-3.5-15.1-3.4-31.5,0.4-49.5c5.9-28.9,20.1-56.5,31.6-78.8c8.5-16.5,15.9-30.9,16.9-39.9c-1.1-3.4-2-6.5-2.9-9.3
	c-4.3-16.3-13.5-24-18.3-25.9c-22.9-9.2-105.7-9.2-128.6,0l0,0c-4.8,1.9-13.9,9.5-18.3,25.9c-0.8,3-1.7,6-2.9,9.3
	c1,9,8.4,23.4,16.9,39.9c11.5,22.3,25.6,49.9,31.6,78.8C465.2,656.9,465.3,673.3,461.8,688.5L461.8,688.5z"/>
<path id="SVGID" class="st0" d="M436.8,735.1l-1.6-10.2c-7.8-52.1-21.4-77-35.8-103.5c-4.4-8.1-9-16.5-13.7-26
	c-1.7-3.4-2.5-7.3-2.8-11.5c-0.5-12.7,5.7-27.5,12.5-43.2c3.1-7.3,6.2-14.9,8.9-22.4l7.2-20.7l1.4,21.8c0.6,9,8.1,23.7,16.9,40.7
	c11.5,22.3,25.6,49.9,31.6,78.8c7.1,34.4,1.1,63.2-18.4,88.1L436.8,735.1L436.8,735.1z M407.8,534.2c-1.3,3.4-2.8,6.6-4.1,9.9
	c-6.2,14.9-12.1,28.7-11.7,39.5c0.1,3,0.7,5.6,1.8,8c4.4,9.2,9,17.6,13.4,25.6c13.8,25.3,26.8,49.2,35.1,95.7
	c30.8-49.6,1.6-106.5-20.1-148.7C416.2,552.8,411,542.7,407.8,534.2L407.8,534.2z"/>
<g>
	<defs>
		<path id="SVGID_1_" d="M436.8,735.1l-1.6-10.2c-7.8-52.1-21.4-77-35.8-103.5c-4.4-8.1-9-16.5-13.7-26c-1.7-3.4-2.5-7.3-2.8-11.5
			c-0.5-12.7,5.7-27.5,12.5-43.2c3.1-7.3,6.2-14.9,8.9-22.4l7.2-20.7l1.4,21.8c0.6,9,8.1,23.7,16.9,40.7
			c11.5,22.3,25.6,49.9,31.6,78.8c7.1,34.4,1.1,63.2-18.4,88.1L436.8,735.1L436.8,735.1z M407.8,534.2c-1.3,3.4-2.8,6.6-4.1,9.9
			c-6.2,14.9-12.1,28.7-11.7,39.5c0.1,3,0.7,5.6,1.8,8c4.4,9.2,9,17.6,13.4,25.6c13.8,25.3,26.8,49.2,35.1,95.7
			c30.8-49.6,1.6-106.5-20.1-148.7C416.2,552.8,411,542.7,407.8,534.2L407.8,534.2z"/>
	</defs>
	<use xlink:href="#SVGID_1_"  style="overflow:visible;fill:#FFFFFF;"/>
	<clipPath id="SVGID_00000061464461449073099330000011777409380592150198_">
		<use xlink:href="#SVGID_1_"  style="overflow:visible;"/>
	</clipPath>
	<g style="clip-path:url(#SVGID_00000061464461449073099330000011777409380592150198_);">
		<path class="st0" d="M502.9,728.7H382.4V515.3h120.5V728.7z M391.3,720H494V524.2H391.3V720z"/>
	</g>
</g>
<path id="SVGID-2" class="st0" d="M392.1,588.5l-4.8-0.2c-42-2-76.2-24.1-98.9-64c-17-29.8-21.6-58.6-21.7-59.8l-2.2-13.8l9.7,10.1
	c24.7,25.9,54,28.3,79.9,30.3c24.4,2,47.5,3.8,58.4,26.7l0.8,1.7l-0.6,1.7c-2.8,7.9-6,15.6-9.1,23c-6.2,14.9-12.1,28.7-11.7,39.5
	L392.1,588.5L392.1,588.5z M278.3,476.5c3,10.9,8.4,27.3,17.7,43.6c9.5,16.5,21,29.8,34.1,39.5c15.3,11.3,33.1,17.8,52.9,19.5
	c1-11.5,6.5-24.6,12.3-38.3c2.9-6.7,5.7-13.7,8.3-20.7c-9.1-16.8-27.4-18.3-50.4-20.1C330.7,498.1,303,495.8,278.3,476.5
	L278.3,476.5z"/>
<g>
	<defs>
		<path id="SVGID_00000098180365324151739390000004187105877764554128_" d="M392.1,588.5l-4.8-0.2c-42-2-76.2-24.1-98.9-64
			c-17-29.8-21.6-58.6-21.7-59.8l-2.2-13.8l9.7,10.1c24.7,25.9,54,28.3,79.9,30.3c24.4,2,47.5,3.8,58.4,26.7l0.8,1.7l-0.6,1.7
			c-2.8,7.9-6,15.6-9.1,23c-6.2,14.9-12.1,28.7-11.7,39.5L392.1,588.5L392.1,588.5z M278.3,476.5c3,10.9,8.4,27.3,17.7,43.6
			c9.5,16.5,21,29.8,34.1,39.5c15.3,11.3,33.1,17.8,52.9,19.5c1-11.5,6.5-24.6,12.3-38.3c2.9-6.7,5.7-13.7,8.3-20.7
			c-9.1-16.8-27.4-18.3-50.4-20.1C330.7,498.1,303,495.8,278.3,476.5L278.3,476.5z"/>
	</defs>
	<use xlink:href="#SVGID_00000098180365324151739390000004187105877764554128_"  style="overflow:visible;fill:#FFFFFF;"/>
	<clipPath id="SVGID_00000049902936736645604640000009445918486740047290_">
		<use xlink:href="#SVGID_00000098180365324151739390000004187105877764554128_"  style="overflow:visible;"/>
	</clipPath>
	<g style="clip-path:url(#SVGID_00000049902936736645604640000009445918486740047290_);">
		<path class="st0" d="M412.9,588.3H266.6V459.4h146.3V588.3z M275.5,579.4h128.7V468.3H275.5V579.4z"/>
	</g>
</g>
<path id="SVGID-3" class="st0" d="M498.5,754.8h-0.2c-0.7,0-17.8-1.1-30.5-15.4c-9.9-11.3-14.3-27.2-12.8-47.4l0.7-10.2l6.9,7.4
	c2.8,2.9,11.5,10.2,19.2,8.9c4.9-0.8,9.2-5.1,12.7-12.9l4.1-9l4.1,9c3.5,7.8,7.8,12.1,12.7,12.9c7.7,1.3,16.4-6,19.2-8.9l6.9-7.4
	l0.7,10.1c1.4,20.2-2.9,36.2-12.8,47.4c-12.7,14.4-29.8,15.4-30.5,15.4L498.5,754.8L498.5,754.8z M463.5,701.4
	c0.4,13.4,4,24.2,10.8,32c9.5,10.8,22.3,12.5,24.2,12.6c1.9-0.2,14.9-1.8,24.2-12.6c6.8-7.8,10.4-18.4,10.8-32
	c-5,3.4-12.1,6.7-19.6,5.4c-6-1-11.1-4.6-15.3-10.8c-4.2,6.1-9.3,9.7-15.3,10.8C475.7,708.1,468.6,704.8,463.5,701.4L463.5,701.4z"
	/>
<g>
	<defs>
		<path id="SVGID_00000034778038924734681430000007570210596169478285_" d="M498.5,754.8h-0.2c-0.7,0-17.8-1.1-30.5-15.4
			c-9.9-11.3-14.3-27.2-12.8-47.4l0.7-10.2l6.9,7.4c2.8,2.9,11.5,10.2,19.2,8.9c4.9-0.8,9.2-5.1,12.7-12.9l4.1-9l4.1,9
			c3.5,7.8,7.8,12.1,12.7,12.9c7.7,1.3,16.4-6,19.2-8.9l6.9-7.4l0.7,10.1c1.4,20.2-2.9,36.2-12.8,47.4
			c-12.7,14.4-29.8,15.4-30.5,15.4L498.5,754.8L498.5,754.8z M463.5,701.4c0.4,13.4,4,24.2,10.8,32c9.5,10.8,22.3,12.5,24.2,12.6
			c1.9-0.2,14.9-1.8,24.2-12.6c6.8-7.8,10.4-18.4,10.8-32c-5,3.4-12.1,6.7-19.6,5.4c-6-1-11.1-4.6-15.3-10.8
			c-4.2,6.1-9.3,9.7-15.3,10.8C475.7,708.1,468.6,704.8,463.5,701.4L463.5,701.4z"/>
	</defs>
	<use xlink:href="#SVGID_00000034778038924734681430000007570210596169478285_"  style="overflow:visible;fill:#FFFFFF;"/>
	<clipPath id="SVGID_00000183927712149567371890000000819586497035952827_">
		<use xlink:href="#SVGID_00000034778038924734681430000007570210596169478285_"  style="overflow:visible;"/>
	</clipPath>
	<g style="clip-path:url(#SVGID_00000183927712149567371890000000819586497035952827_);">
		<path class="st0" d="M546,754.8h-95v-72.2h95V754.8z M459.9,746h77.2v-54.6h-77.4V746H459.9L459.9,746z"/>
	</g>
</g>
<path class="st0" d="M394.7,565.6l-2.2-16.3c-2.6-20-21.8-25.9-45.9-33.3c-25.9-7.9-58.2-17.8-79.3-49.8l6.8-5.5
	c24.7,25.9,54,28.3,79.9,30.3c24.4,2,47.5,3.8,58.4,26.7l0.8,1.7l-0.6,1.7c-2.8,7.8-5.9,15.4-9.1,22.9c-1,2.2-1.8,4.3-2.6,6.5
	L394.7,565.6L394.7,565.6z M310.8,493.2c12.6,6.5,26,10.7,38.4,14.5c20.5,6.3,40,12.3,48.3,28.4c2.2-5.3,4.3-10.5,6.2-15.9
	c-9.1-16.8-27.4-18.3-50.4-20.1C340.3,498.8,325.6,497.6,310.8,493.2L310.8,493.2z"/>
<path id="SVGID-4" class="st0" d="M560.3,735.1l-6.3-8c-19.5-24.9-25.5-53.7-18.4-88c5.9-28.9,20.1-56.5,31.6-78.8
	c8.7-17,16.3-31.7,16.9-40.7l1.4-21.8l7.2,20.6c2.6,7.5,5.7,15.1,8.9,22.4c6.6,15.7,12.9,30.5,12.5,43.2c-0.1,4.3-1.1,8.1-2.8,11.5
	c-4.6,9.5-9.2,17.8-13.7,26c-14.4,26.5-28,51.4-35.8,103.5L560.3,735.1z M589.2,534.2c-3.2,8.5-8.4,18.4-14.3,29.9
	c-21.7,42.2-50.9,99-20.1,148.7c8.3-46.3,21.3-70.4,35.1-95.7c4.4-8,9-16.4,13.4-25.6c1.1-2.3,1.7-4.9,1.8-8
	c0.4-10.7-5.5-24.7-11.7-39.5C592,540.9,590.5,537.6,589.2,534.2L589.2,534.2z"/>
<g>
	<defs>
		<path id="SVGID_00000150808175540716071630000000459504397265319101_" d="M560.3,735.1l-6.3-8c-19.5-24.9-25.5-53.7-18.4-88
			c5.9-28.9,20.1-56.5,31.6-78.8c8.7-17,16.3-31.7,16.9-40.7l1.4-21.8l7.2,20.6c2.6,7.5,5.7,15.1,8.9,22.4
			c6.6,15.7,12.9,30.5,12.5,43.2c-0.1,4.3-1.1,8.1-2.8,11.5c-4.6,9.5-9.2,17.8-13.7,26c-14.4,26.5-28,51.4-35.8,103.5L560.3,735.1z
			 M589.2,534.2c-3.2,8.5-8.4,18.4-14.3,29.9c-21.7,42.2-50.9,99-20.1,148.7c8.3-46.3,21.3-70.4,35.1-95.7c4.4-8,9-16.4,13.4-25.6
			c1.1-2.3,1.7-4.9,1.8-8c0.4-10.7-5.5-24.7-11.7-39.5C592,540.9,590.5,537.6,589.2,534.2L589.2,534.2z"/>
	</defs>
	<use xlink:href="#SVGID_00000150808175540716071630000000459504397265319101_"  style="overflow:visible;fill:#FFFFFF;"/>
	<clipPath id="SVGID_00000172425363071024973040000014793256340210485682_">
		<use xlink:href="#SVGID_00000150808175540716071630000000459504397265319101_"  style="overflow:visible;"/>
	</clipPath>
	<g style="clip-path:url(#SVGID_00000172425363071024973040000014793256340210485682_);">
		<path class="st0" d="M614.5,728.7H494.1V515.3h120.5v213.4H614.5z M502.9,720h102.8V524.2H502.9V720L502.9,720z"/>
	</g>
</g>
<path id="SVGID-5" class="st0" d="M604.9,588.5l0.1-4.8c0.4-10.7-5.5-24.7-11.7-39.5c-3.1-7.4-6.3-15.1-9.1-23l-0.6-1.7l0.8-1.7
	c10.9-22.9,34-24.8,58.4-26.7c25.9-2.2,55.2-4.4,79.9-30.3l9.7-10.1l-2.2,13.8c-0.2,1.2-4.7,29.9-21.7,59.8
	c-22.8,39.9-56.9,62-98.9,64L604.9,588.5L604.9,588.5z M593.2,520.1c2.5,6.9,5.4,13.9,8.3,20.7c5.7,13.8,11.4,26.8,12.3,38.3
	c19.9-1.7,37.7-8.3,53.1-19.5c13.3-9.8,24.8-23.1,34.1-39.6c9.3-16.3,14.7-32.6,17.6-43.4c-24.7,19.4-52.2,21.6-75.1,23.5
	C620.6,501.8,602.3,503.2,593.2,520.1L593.2,520.1z"/>
<g>
	<defs>
		<path id="SVGID_00000121239521223954027670000014410968928144429477_" d="M604.9,588.5l0.1-4.8c0.4-10.7-5.5-24.7-11.7-39.5
			c-3.1-7.4-6.3-15.1-9.1-23l-0.6-1.7l0.8-1.7c10.9-22.9,34-24.8,58.4-26.7c25.9-2.2,55.2-4.4,79.9-30.3l9.7-10.1l-2.2,13.8
			c-0.2,1.2-4.7,29.9-21.7,59.8c-22.8,39.9-56.9,62-98.9,64L604.9,588.5L604.9,588.5z M593.2,520.1c2.5,6.9,5.4,13.9,8.3,20.7
			c5.7,13.8,11.4,26.8,12.3,38.3c19.9-1.7,37.7-8.3,53.1-19.5c13.3-9.8,24.8-23.1,34.1-39.6c9.3-16.3,14.7-32.6,17.6-43.4
			c-24.7,19.4-52.2,21.6-75.1,23.5C620.6,501.8,602.3,503.2,593.2,520.1L593.2,520.1z"/>
	</defs>
	<use xlink:href="#SVGID_00000121239521223954027670000014410968928144429477_"  style="overflow:visible;fill:#FFFFFF;"/>
	<clipPath id="SVGID_00000152981219579110692840000017997915431249169574_">
		<use xlink:href="#SVGID_00000121239521223954027670000014410968928144429477_"  style="overflow:visible;"/>
	</clipPath>
	<g style="clip-path:url(#SVGID_00000152981219579110692840000017997915431249169574_);">
		<path class="st0" d="M730.4,588.3H584V459.4h146.3v128.9H730.4z M592.8,579.4h128.7V468.3H592.8V579.4z"/>
	</g>
</g>
<path class="st0" d="M602.3,565.6l-6.2-15.1c-0.8-2-1.8-4.2-2.6-6.2c-3.1-7.4-6.3-15.2-9.1-23l-0.6-1.7l0.8-1.7
	c10.9-22.9,34-24.8,58.4-26.7c25.9-2.2,55.2-4.4,79.9-30.3l6.8,5.5c-21.1,32-53.4,41.8-79.3,49.8c-24.2,7.4-43.2,13.3-45.9,33.3
	L602.3,565.6z M593.2,520.1c1.9,5.4,4.1,10.7,6.2,15.9c8.3-16,27.9-22,48.3-28.4c12.6-3.8,25.9-7.9,38.4-14.5
	c-14.9,4.6-29.6,5.7-42.6,6.8C620.6,501.8,602.3,503.2,593.2,520.1L593.2,520.1z"/>
<path class="st0" d="M498.5,977.9l-4.1-9.3c-11.5-26.5-32.5-40.5-54.7-55.3c-34.1-22.9-72.8-48.7-81.8-125.6l-0.2-2.3l1.8-1.6
	c1.2-1,2.3-2,3.5-3.1l5.4-5.4l1.9,7.4c0,0.2,5.7,21.9,19.4,41.8c17.7,25.9,39.8,36.5,65.7,32l0,0c18.7-3.4,32.6-3.2,43.2,0.2
	c10.7-3.5,24.4-3.6,43.2-0.2c25.9,4.6,48-6.1,65.7-32c13.7-19.9,19.3-41.6,19.4-41.8l1.9-7.4l5.4,5.3c1.1,1.1,2.3,2.2,3.4,3.1
	l1.8,1.6l-0.2,2.3c-9,76.9-47.7,102.8-81.8,125.6c-22.2,14.9-43.2,28.9-54.7,55.3L498.5,977.9L498.5,977.9z M370.3,808
	c12.3,56.4,43.8,77.5,74.4,98c21,14,41,27.3,53.9,50.9c12.9-23.6,32.8-36.9,53.9-50.9c30.5-20.5,62-41.4,74.4-98
	c-3,6.6-6.9,14-12,21.2c-19.5,28.6-45.4,41.1-74.6,35.9c-17.7-3.1-30.9-3-40.1,0.4l-1.6,0.6l-1.6-0.6c-9.2-3.5-22.3-3.6-40.1-0.4
	l0,0c-29.3,5.1-55.1-7.2-74.6-35.9C377.3,822,373.3,814.7,370.3,808L370.3,808z"/>
<path class="st0" d="M562,515.1c-2.2,0-4.4-0.2-6.7-0.6c-8.6-1.6-14.9-5.5-18.7-11.9c-7.2-11.9-2.5-27.3-2.3-27.9l0.6-1.8l1.7-0.8
	c4.3-2.3,8.7-5.5,9.7-7.1c-0.2-5.1,1.8-10.7,5.9-15.8c3.7-4.8,16.3-6.8,22.2-7.5c0.8-0.4,3.4-1.4,5.3-3.5c1.9-2,13.9-9.9,40.6-27.7
	c14.4-9.6,29.3-19.4,34.1-22.9c7.8-5.6,23.4-13.8,34.7-19.8c4.8-2.5,9-4.7,10.3-5.5l0.8-0.6c5.6-3.6,22.6-14.4,36.4-28.6
	c13.8-14,15.6-37,15.6-37.2v-0.5l0.1-0.5c1.2-4.4,1.8-9.9,2.3-15.9c0.6-6.7,1.3-14.4,3.2-21.9c3.5-13.7,5.5-26.3,4.2-44.3
	c-1.6-21-11.7-43.8-13.8-48.1c-1.3-2.9-2.8-6-4.2-9.2c-4-8.6-7.9-17.6-10.4-22c-2.2-3.8-6-11.5-9.3-18.2c-2.3-4.4-4.3-8.7-5.4-10.7
	c-0.5-0.8-1.1-2-1.9-3.6c-3.6-6.7-10.2-19.3-14.3-24.6c-3.1-4.1-7.7-12.5-12.3-21.3c-3.5-6.5-6.9-13.1-9.7-17.4
	c-2-3.1-6.6-10.5-1.7-14.1c2.8-2,6.6-1.1,9.7,2.5c2.5,3,6.6,8.4,10.4,13.7c2.5,3.4,4.9,6.6,6.5,8.6c1.2,1.6,2,2.9,2.9,4.2
	c2.4,3.6,4.9,7.3,13.1,15c11.1,10.4,15.7,16.2,20.6,22.3l0.8,1.1c3.4,4.2,6.2,10.3,8.9,15.7c1.7,3.6,3.4,6.9,4.8,9.1
	c1.9,3,4.7,8.4,7.5,14.1c2.6,5.1,6.5,12.8,7.7,14.3c1.7,1.8,3.1,2.6,4.4,2.6c3.1-0.2,6.6-5.1,8-7.3c0.2-0.4,0.5-0.7,0.7-1
	c1.3-1.8,2.6-10.4,3.4-15.1c0.4-2.4,0.7-4.7,1.1-6.7c1.3-7.1-0.5-14.6-1.7-17.6c-1.8-4.7-5.5-24.4-5.7-29.9
	c-0.1-2.5-0.4-7.7-0.7-12.6c-0.5-7.3-0.6-10.8-0.6-12c0-0.4-0.2-1.2-0.4-1.9c-1.2-6.5-2-12.1,0.2-15.3c1-1.3,2.3-2.2,4-2.5
	c6.3-1.1,7.7,5.5,8.3,8.6c0.5,2.3,1,4.9,2.2,7.5c2.3,5,3.8,13.3,5,20.7c0.7,4.2,1.4,8.1,2,10.1c0.4,1.3,1.2,3.5,2.2,6.1
	c3.5,9.3,8.6,23.4,9.1,31.3c0.6,9.3-6.8,57-7.8,60.2c-1,3.2-6,37.5-5.5,43.2c1,9.3-3,29.6-6,43.8c-0.2,1.2-0.5,2-0.5,2.5l-0.1,0.8
	c-2.9,15.1-8.3,41.7-11,50.5c-0.2,0.8-0.5,1.6-0.7,2.3c2.8-1.6,7.8-4.9,16.4-11.9c9-7.2,15.7-19.9,19.4-26.8c0.6-1.2,1.2-2.3,1.7-3
	c1.9-3.5,9-27.5,12.9-41.9l0.1-0.5l0.2-0.5c2-3.7,4.8-5.4,7.7-4.7c4.7,1.1,4.8,6.9,4.9,9.5c0.4,10.7-4.2,39.9-11.3,58.2
	c-4.3,11.4-13.2,23.5-25.5,35l-0.4,0.4c-0.8,0.7-2,1.4-5.3,3.6c-7.9,4.9-24.3,15.1-32.1,25.4c-11.4,14.7-55.7,42.8-64.2,45.3
	c-5.6,1.6-26,12.3-33.5,16.4c-5.6,3.2-11.5,6.6-16.6,9.7c17-3.8,28.4-14.1,31-16.6c1.6-1.6,3.8-1.9,5.9-1.1c4,1.4,7.1,7.1,7.7,13.3
	c0.5,6.2-1.2,18.2-18.2,28c-16.6,9.6-29.7,9.9-43.5,10.4c-10.2,0.4-20.6,0.6-33.9,4.6c-9.3,2.8-15.8,7.3-19.2,13.4
	c-4.4,8-1.9,16.5-1.9,16.6l0.2,1l-0.1,1c0,0.4-1.2,8.7-8.5,14C572.1,513.6,567.4,515.1,562,515.1L562,515.1z M542.3,478.9
	c-0.8,3.7-2.2,12.6,1.8,19c2.5,4.1,6.6,6.6,12.7,7.7c5.9,1.1,10.5,0.5,13.8-1.9c3.2-2.3,4.6-5.9,4.9-7.4c-0.7-3.2-2.2-12.7,2.9-22
	c4.4-8.4,12.7-14.4,24.4-17.8c14.4-4.2,25.9-4.6,36-4.9c13.2-0.4,24.7-0.7,39.3-9.2c10.9-6.3,13.5-13.1,13.9-17.7
	c0.1-2.8-0.5-4.9-1.2-6.3c-7.3,6.2-26.5,19.9-52.3,18.2h-0.1l-3.2-0.2l-0.7-3.2c-0.7-3.1,1.7-4.7,3.1-5.6c0.8-0.6,2.2-1.4,3.7-2.4
	c2.6-1.7,6.3-3.8,11-6.6c7.9-4.7,16-9.3,16-9.3h0.1c2.9-1.6,27.8-15.1,35.3-17.1c6-1.7,49.3-28.6,59.6-42.2
	c8.7-11.5,26.1-22.3,34.4-27.4c1.7-1.1,3.5-2.2,4-2.5l0.4-0.4c14.4-13.4,20.6-24.7,23.2-31.7c3.6-9.3,6.6-22.5,8.5-33.9
	c-2.8,9.3-5.7,18.6-7.3,21.2c-0.5,0.7-1,1.7-1.6,2.9c-4,7.4-11.3,21.2-21.7,29.5c-17.5,14.1-21.9,14.9-23.6,15.1
	c-1.3,0.2-4.4,0.7-6.6-1.7c-2.5-2.9-1.4-7.1,0.5-13.3c1.9-6.1,5.9-24.2,10.8-49.6l0.1-0.8c0.1-0.5,0.2-1.4,0.6-2.6
	c4.6-21.2,6.5-35.1,5.9-41.2c-0.7-7.2,4.7-42.9,5.7-46.7l0,0c0.8-3.2,8-48.6,7.4-57c-0.5-6.7-5.5-20.6-8.6-28.9
	c-1.1-2.8-1.8-5-2.3-6.5c-0.8-2.5-1.6-6.6-2.4-11.3c-0.4-1.9-0.7-4-1.1-6c0.2,4.7,0.5,9.2,0.6,11.6c0.2,5,3.7,23.6,5.1,27.2
	c2.2,5.5,3.6,14.5,2.2,22.4c-0.4,1.9-0.7,4.1-1.1,6.3c-1.4,9.3-2.5,15.8-4.9,19c-0.1,0.2-0.4,0.5-0.6,0.8c-2.4,3.5-7.4,10.5-14.7,11
	c-4.1,0.2-7.9-1.6-11.5-5.5c-1.9-2.2-4.7-7.5-9.1-16.2c-2.6-5.3-5.4-10.8-7.1-13.3c-1.7-2.6-3.5-6.3-5.3-10.2c-2.4-5-5-10.7-7.8-14
	l-0.8-1.1c-4.7-5.9-9.1-11.4-19.8-21.4c-6.3-6-9.7-9.9-12-13.1c2.5,4.4,4.7,8.3,6.3,10.4c4.4,5.9,11.1,18.3,15.1,25.7
	c0.8,1.4,1.4,2.6,1.9,3.6c1.2,2.2,3.2,6.2,5.5,10.9c3.4,6.6,7.1,14.1,9.1,17.8c2.6,4.8,6.7,13.9,10.8,22.8c1.4,3.2,2.9,6.3,4.2,9.2
	c2.2,4.6,12.9,28.7,14.6,51.3c1.3,19.2-0.8,32.6-4.4,47.1c-1.8,6.9-2.4,13.9-3.1,20.6c-0.6,6.2-1.2,12-2.5,17.1
	c-0.4,3.7-3,27.1-18.1,42.3c-14.5,15-32.2,26.2-38.1,29.9l-0.8,0.6c-1.7,1.1-5.6,3.1-11,6c-10.5,5.5-26.3,13.8-33.7,19
	c-5,3.6-19.3,13.1-34.5,23.1c-16.5,10.9-37,24.4-39.2,26.5c-4,4.1-8.7,5.6-9.3,5.7l-0.4,0.1h-0.4c-7.4,0.8-15.3,3-16.8,4.3
	c-2.8,3.5-4.2,7.1-4,10.1C555.5,470.2,548.8,475.3,542.3,478.9L542.3,478.9z M546.1,465.4L546.1,465.4z M546.2,464.8L546.2,464.8z
	 M693.4,416.2L693.4,416.2z"/>
<path class="st0" d="M435.3,515.7c-5.6,0-10.3-1.4-14.1-4.3c-7.2-5.4-8.3-13.7-8.4-14l-0.1-1l0.2-1c0,0,1.7-5.6,0-12.1
	c-2.3-8.5-9.2-14.6-20.8-18.1c-13.2-4.1-23.7-4.4-33.8-4.9c-13.8-0.6-26.8-1.1-43.4-10.9c-17-10.1-18.6-22-18-28.3
	s3.8-11.9,7.8-13.3c2.2-0.8,4.3-0.4,5.9,1.2c2.6,2.5,13.9,12.9,30.9,17c-5-3.1-10.9-6.5-16.4-9.8c-7.4-4.2-27.8-15.1-33.4-16.8
	c-8.5-2.6-52.6-31-63.7-45.9c-7.7-10.2-23.8-20.6-31.6-25.5c-3.5-2.2-4.7-3-5.4-3.7l-0.2-0.2c-12.1-11.4-21.1-24-25.3-35.3
	c-6.8-18.7-11.1-47.8-10.7-58.4c0.1-2.5,0.4-8.4,5-9.3c2.9-0.6,5.6,1.1,7.5,4.8l0.2,0.5l0.1,0.5c3.8,14.4,10.5,38.6,12.6,42.2
	c0.5,0.8,1,1.9,1.7,3.1c3.6,6.8,10.2,19.6,19,26.8c8.5,7.1,13.5,10.4,16.3,12c-0.1-0.6-0.4-1.3-0.6-2.3c-2.8-9.1-8-37.4-9.9-47.9
	c-0.4-1.8-0.6-3-0.6-3.5c-0.1-0.5-0.2-1.2-0.5-2.3c-3-14.5-6.7-34.7-5.6-44.3c0.6-5.6-4.1-40-5-43.2c-0.8-3-7.9-50.5-7.1-60.2
	c0.6-7.9,6-22,9.6-31.4c1-2.5,1.8-4.6,2.2-5.9c0.6-1.9,1.4-5.9,2.2-9.9c1.4-7.3,3-15.7,5.3-20.7c1.2-2.6,1.8-5.3,2.3-7.5
	c0.6-3.1,1.9-9.7,8.3-8.6c1.6,0.2,3,1.2,3.8,2.5c2.3,3.2,1.4,8.6,0.1,15.1c-0.1,0.7-0.4,1.7-0.4,2c0,1.3-0.2,4.7-0.7,12.1
	c-0.4,4.9-0.7,10.1-0.8,12.5c-0.4,5.6-4.1,25.1-6.1,29.9c-1.2,3-3,10.5-1.8,17.6c0.4,1.9,0.6,4.1,1,6.3c0.7,4.8,1.9,13.7,3.2,15.6
	c0.2,0.2,0.4,0.6,0.6,1c1.4,2.2,4.9,7.2,8,7.4c1.3,0.1,2.8-0.7,4.4-2.5c1.2-1.3,5.1-8.9,7.7-13.9c3-5.7,5.9-11.3,7.8-14.3
	c1.4-2.2,3.1-5.5,4.8-9c2.6-5.4,5.7-11.5,9.1-15.7l0.5-0.5c5-6.2,9.7-12.1,21.3-22.8c8.1-7.5,10.8-11.4,13.2-14.9
	c1-1.3,1.8-2.6,3-4.2c1.4-1.8,3.6-4.7,5.9-7.7c4.1-5.3,8.6-11.3,11.3-14.4c3-3.5,6.9-4.4,9.7-2.4c4.9,3.7,0.2,11-1.8,14.3
	c-2.8,4.2-6.3,10.8-9.8,17.1c-4.9,8.9-9.5,17.2-12.7,21.3c-4.3,5.5-11.6,18.9-15.1,25.4c-0.6,1.1-1.1,1.9-1.4,2.6
	c-1.2,2-3.5,6.6-5.9,11.4c-3.2,6.3-6.9,13.7-9.1,17.2c-2.5,4.4-6.7,13.3-10.7,21.9c-1.6,3.2-3,6.5-4.3,9.2
	c-2,4.4-12.6,27.3-14.3,48.1c-1.4,17.8,0.5,30.7,3.7,44.3c1.9,7.7,2.5,15.3,3.1,22.2c0.5,5.9,1,11.5,2.2,15.8l0.1,0.5v0.5
	c0,0.2,1.7,23.4,15.2,37.5c13.9,14.6,30.9,25.5,36.4,29.1l0.6,0.4c1.3,0.8,5.6,3.1,10.5,5.7c11.3,6,26.6,14.3,34.4,20
	c4.8,3.6,19.6,13.7,34,23.4c26.5,17.8,38.3,26,40.2,28c1.9,2,4.4,3.1,5.3,3.5c5.7,0.8,18.3,3,22,7.8c4.1,5.1,6,10.7,5.7,15.7
	c1.1,1.4,5.5,4.3,9.7,6.2l1.9,0.8l0.6,2c0.2,0.7,4.6,16.9-3.1,28.9c-4,6.2-10.2,10.1-18.7,11.5C439.5,515.6,437.4,515.7,435.3,515.7
	L435.3,515.7z M421.7,497c0.4,1.4,1.6,5,4.8,7.4c3.2,2.4,7.9,3.1,13.9,2c6-1,10.2-3.5,12.7-7.5c4.2-6.6,3.1-15.9,2.4-19.9
	c-6.6-3.2-13.4-7.9-12.9-13.5c0.2-2.9-1.1-6.6-3.8-10.1c-1.3-1.3-9.3-3.6-16.8-4.6h-0.4l-0.4-0.1c-0.5-0.1-5.4-1.8-9.3-5.9
	c-2-2-22.4-15.7-38.8-26.7c-15.1-10.2-29.5-19.9-34.4-23.6c-7.2-5.3-22.9-13.8-33.2-19.3c-5.5-3-9.6-5.1-11.1-6.2l-0.6-0.4
	c-5.7-3.7-23.4-15.1-38-30.4c-14.9-15.4-17.2-38.9-17.6-42.5c-1.3-5-1.8-10.8-2.3-17c-0.6-6.8-1.2-13.8-2.9-20.8
	c-3-12.6-5.6-26.9-4-47.1c1.8-22.4,12.9-46.6,15.1-51.1c1.3-2.8,2.8-6,4.3-9.2c4.1-8.7,8.3-17.7,11-22.5c2-3.6,5.6-10.7,8.9-17
	c2.6-5,4.8-9.3,6-11.6c0.4-0.6,0.8-1.6,1.3-2.5c3.8-7.2,11.1-20.5,15.9-26.7c1.7-2,4-5.9,6.5-10.4c-2.3,3.1-5.6,7.1-12.2,13.1
	c-11,10.2-15.3,15.6-20.4,21.8l-0.5,0.6c-2.8,3.5-5.6,9.1-8,14.1c-1.9,3.8-3.6,7.3-5.4,9.9c-1.7,2.6-4.6,8.1-7.3,13.4
	c-4.3,8.5-7.2,13.8-9.1,15.8c-3.6,3.8-7.5,5.6-11.6,5.4c-7.3-0.6-12.2-7.8-14.6-11.3c-0.2-0.2-0.4-0.6-0.6-0.8
	c-2.4-3.4-3.5-9.8-4.8-19.4c-0.4-2.2-0.6-4.3-0.8-6.1c-1.6-9,0.7-18.2,2.3-22.3c1.4-3.7,5.1-22.2,5.5-27.2c0.1-2.4,0.5-6.9,0.7-11.6
	c-0.5,2-0.8,4.2-1.2,6.1c-0.8,4.7-1.7,8.6-2.5,11.1c-0.5,1.4-1.3,3.5-2.3,6.1c-3.1,8.3-8.4,22.3-9,29c-0.6,8.1,6,53.8,6.8,57.1
	c1.1,4,6.1,39.5,5.3,46.7c-0.7,6.1,1.2,20.1,5.5,41.6c0.2,1.1,0.4,1.9,0.5,2.4s0.4,1.8,0.7,3.5c1.8,9.5,7.1,38.3,9.7,47.1
	c1.8,6.1,2.9,10.4,0.4,13.2c-2.2,2.4-5.3,1.9-6.6,1.7c-2.6-0.5-7.9-2.5-23.5-15.3c-10.2-8.4-17.4-22.2-21.2-29.6
	c-0.6-1.2-1.1-2.2-1.6-3c-1.6-2.8-4.3-12-7.1-21.3c1.8,11.3,4.7,24.3,8.1,34c3.7,10.2,12,21.6,23.1,32l0.2,0.2
	c0.5,0.4,2.4,1.6,4.1,2.8c8.3,5.3,25.3,16.2,34,27.7c10.2,13.5,53.3,41,59.2,42.8c7.5,2.3,32.3,16,35.2,17.6h0.1
	c0.1,0,8,4.8,15.9,9.5c4.7,2.8,8.4,5,11,6.7c5.4,3.4,7.5,4.8,6.8,8.1l-0.7,3.2l-3.4,0.2c-1.3,0.1-2.5,0.1-3.8,0.1
	c-24,0-41.4-12.8-48.4-18.8c-0.7,1.4-1.3,3.6-1.2,6.3c0.2,4.6,2.9,11.4,13.7,17.8c14.6,8.6,26,9.1,39.2,9.6
	c10.2,0.4,21.7,0.8,36,5.3c11.7,3.6,19.9,9.7,24.3,18.1C424.1,484.3,422.5,493.8,421.7,497L421.7,497z M197.1,318L197.1,318z
	 M221.2,42.5v0.2V42.5z"/>
</svg>
